<svg width="522" height="405" viewBox="0 0 522 405" fill="none" xmlns="http://www.w3.org/2000/svg">
<g clip-path="url(#clip0_101_2)">
<mask id="mask0_101_2" style="mask-type:luminance" maskUnits="userSpaceOnUse" x="0" y="0" width="522" height="405">
<path d="M522 0H0V405H522V0Z" fill="white"/>
</mask>
<g mask="url(#mask0_101_2)">
<path d="M297.229 198.033C308.975 198.033 318.497 188.52 318.497 176.785C318.497 165.051 308.975 155.538 297.229 155.538C285.483 155.538 275.961 165.051 275.961 176.785C275.961 188.52 285.483 198.033 297.229 198.033Z" fill="#E6E6E6"/>
<path d="M349.353 204.09L327.128 181.886C328.831 179.238 329.986 176.276 330.523 173.175C331.06 170.074 330.968 166.897 330.253 163.831C329.538 160.766 328.215 157.876 326.362 155.331C324.508 152.786 322.162 150.639 319.463 149.016C314.38 145.982 308.342 144.967 302.545 146.17C296.748 147.373 291.615 150.707 288.162 155.512C284.985 159.962 283.459 165.38 283.846 170.833C284.234 176.286 286.511 181.434 290.286 185.391C294.061 189.349 299.098 191.869 304.532 192.518C309.965 193.167 315.455 191.905 320.058 188.949L342.283 211.153C343.221 212.089 344.493 212.614 345.818 212.614C347.143 212.613 348.414 212.087 349.352 211.151C350.289 210.214 350.815 208.945 350.816 207.62C350.816 206.296 350.29 205.026 349.353 204.09ZM319.228 181.057C316.474 183.808 312.851 185.52 308.975 185.902C305.099 186.283 301.21 185.31 297.972 183.148C294.734 180.987 292.346 177.77 291.215 174.047C290.085 170.324 290.281 166.324 291.772 162.729C293.262 159.135 295.954 156.167 299.389 154.333C302.824 152.499 306.789 151.911 310.609 152.67C314.428 153.429 317.867 155.488 320.337 158.496C322.808 161.504 324.158 165.274 324.158 169.165C324.161 171.374 323.727 173.562 322.881 175.602C322.035 177.643 320.793 179.497 319.228 181.057Z" fill="#3F3D56"/>
<path d="M510.462 236.841C567.301 299.638 402.535 390.138 269.399 390.138C136.263 390.138 44.1545 320.017 28.3358 236.841C-10.0192 35.1695 355.129 -93.0121 269.399 83.545C144.437 340.897 465.7 187.388 510.462 236.841Z" fill="#E6E6E6"/>
<path d="M484.96 251.704C541.799 314.5 377.033 405 243.897 405C110.762 405 18.6525 334.879 2.8338 251.704C-35.5211 50.0316 329.627 -78.15 243.897 98.4072C118.935 355.76 440.198 202.25 484.96 251.704Z" fill="#3F3D56"/>
<path d="M79.4796 104.473C39.5959 102.718 8.67191 94.1235 9.07818 84.9056C9.32175 79.3791 20.6092 74.9351 40.0462 72.7136C40.1158 72.7051 40.1863 72.7106 40.2538 72.7295C40.3212 72.7484 40.3843 72.7805 40.4393 72.8239C40.4943 72.8672 40.5402 72.921 40.5743 72.9822C40.6084 73.0434 40.63 73.1106 40.638 73.1802C40.6459 73.2497 40.6401 73.3202 40.6207 73.3874C40.6013 73.4547 40.5687 73.5175 40.525 73.5721C40.4812 73.6268 40.427 73.6723 40.3656 73.7059C40.3041 73.7396 40.2366 73.7608 40.167 73.7682C21.8573 75.8612 10.3516 80.1466 10.1397 84.9523C9.77236 93.288 41.5475 101.742 79.5263 103.412C117.505 105.083 149.901 99.452 150.268 91.1162C150.481 86.2904 139.325 80.9964 121.154 77.3006C121.086 77.2869 121.02 77.2597 120.962 77.2208C120.904 77.1819 120.855 77.1319 120.816 77.0737C120.777 77.0155 120.75 76.9503 120.737 76.8817C120.724 76.8132 120.724 76.7427 120.738 76.6742C120.752 76.6058 120.779 76.5408 120.818 76.4829C120.858 76.425 120.908 76.3755 120.966 76.337C121.024 76.2986 121.09 76.272 121.158 76.2588C121.227 76.2457 121.298 76.2462 121.366 76.2603C140.653 80.1831 151.574 85.6149 151.33 91.1629C150.924 100.381 119.363 106.227 79.4796 104.473Z" fill="#806DB3"/>
<path d="M44.0566 106.017C47.3931 112.349 52.3356 117.694 58.3896 121.519C64.4436 125.343 71.3967 127.513 78.5534 127.809C85.71 128.106 92.8192 126.52 99.1696 123.21C105.52 119.9 110.889 114.982 114.739 108.948C91.1424 109.265 67.5459 108.287 44.0566 106.017Z" fill="#806DB3"/>
<path d="M119.151 97.7824C121.159 91.7653 121.738 85.3638 120.841 79.0847C119.945 72.8055 117.598 66.821 113.985 61.6048C110.373 56.3887 105.596 52.084 100.03 49.0314C94.4652 45.9789 88.2652 44.2623 81.921 44.0176C75.5769 43.7728 69.2628 45.0066 63.4785 47.6213C57.6942 50.2359 52.5984 54.1597 48.5945 59.0821C44.5906 64.0045 41.7884 69.7903 40.4097 75.9816C39.0311 82.173 39.1138 88.6 40.6514 94.7539C66.5768 99.1507 92.9637 100.169 119.151 97.7824Z" fill="#806DB3"/>
<path d="M89.7017 70.3831C92.3425 70.3831 94.4834 68.2443 94.4834 65.606C94.4834 62.9676 92.3425 60.8289 89.7017 60.8289C87.0608 60.8289 84.9199 62.9676 84.9199 65.606C84.9199 68.2443 87.0608 70.3831 89.7017 70.3831Z" fill="white"/>
<path d="M65.0926 88.9557C69.4941 88.9557 73.0622 85.3911 73.0622 80.9939C73.0622 76.5967 69.4941 73.032 65.0926 73.032C60.6911 73.032 57.123 76.5967 57.123 80.9939C57.123 85.3911 60.6911 88.9557 65.0926 88.9557Z" fill="white"/>
<path d="M185.375 81.1566C188.31 81.1566 190.688 78.7802 190.688 75.8488C190.688 72.9174 188.31 70.5411 185.375 70.5411C182.441 70.5411 180.062 72.9174 180.062 75.8488C180.062 78.7802 182.441 81.1566 185.375 81.1566Z" fill="#806DB3"/>
<path d="M65.2992 243.578C67.0598 243.578 68.4871 242.153 68.4871 240.394C68.4871 238.635 67.0598 237.209 65.2992 237.209C63.5386 237.209 62.1113 238.635 62.1113 240.394C62.1113 242.153 63.5386 243.578 65.2992 243.578Z" fill="#E6E6E6"/>
<path d="M288.448 352.921C290.208 352.921 291.635 351.495 291.635 349.736C291.635 347.977 290.208 346.552 288.448 346.552C286.687 346.552 285.26 347.977 285.26 349.736C285.26 351.495 286.687 352.921 288.448 352.921Z" fill="#E6E6E6"/>
<path d="M80.7072 182.007C81.5875 182.007 82.3012 181.294 82.3012 180.414C82.3012 179.535 81.5875 178.822 80.7072 178.822C79.8269 178.822 79.1133 179.535 79.1133 180.414C79.1133 181.294 79.8269 182.007 80.7072 182.007Z" fill="#E6E6E6"/>
<path d="M212.471 300.904C213.351 300.904 214.065 300.191 214.065 299.311C214.065 298.432 213.351 297.719 212.471 297.719C211.591 297.719 210.877 298.432 210.877 299.311C210.877 300.191 211.591 300.904 212.471 300.904Z" fill="#E6E6E6"/>
<path d="M452.09 285.511C452.97 285.511 453.684 284.798 453.684 283.918C453.684 283.039 452.97 282.326 452.09 282.326C451.21 282.326 450.496 283.039 450.496 283.918C450.496 284.798 451.21 285.511 452.09 285.511Z" fill="#E6E6E6"/>
<path d="M377.176 332.751C378.056 332.751 378.77 332.038 378.77 331.159C378.77 330.279 378.056 329.566 377.176 329.566C376.296 329.566 375.582 330.279 375.582 331.159C375.582 332.038 376.296 332.751 377.176 332.751Z" fill="#E6E6E6"/>
<path d="M299.074 275.426C299.955 275.426 300.668 274.713 300.668 273.833C300.668 272.954 299.955 272.241 299.074 272.241C298.194 272.241 297.48 272.954 297.48 273.833C297.48 274.713 298.194 275.426 299.074 275.426Z" fill="#E6E6E6"/>
<path d="M198.125 118.312C199.006 118.312 199.719 117.599 199.719 116.72C199.719 115.84 199.006 115.127 198.125 115.127C197.245 115.127 196.531 115.84 196.531 116.72C196.531 117.599 197.245 118.312 198.125 118.312Z" fill="#E6E6E6"/>
<path d="M210.877 39.7552C211.757 39.7552 212.471 39.0422 212.471 38.1628C212.471 37.2833 211.757 36.5704 210.877 36.5704C209.997 36.5704 209.283 37.2833 209.283 38.1628C209.283 39.0422 209.997 39.7552 210.877 39.7552Z" fill="#E6E6E6"/>
<path d="M203.44 370.437C204.32 370.437 205.034 369.724 205.034 368.845C205.034 367.965 204.32 367.252 203.44 367.252C202.559 367.252 201.846 367.965 201.846 368.845C201.846 369.724 202.559 370.437 203.44 370.437Z" fill="#E6E6E6"/>
<path d="M124.807 336.997C125.687 336.997 126.401 336.284 126.401 335.405C126.401 334.526 125.687 333.813 124.807 333.813C123.927 333.813 123.213 334.526 123.213 335.405C123.213 336.284 123.927 336.997 124.807 336.997Z" fill="#E6E6E6"/>
<path d="M373.988 279.672C374.869 279.672 375.582 278.959 375.582 278.08C375.582 277.2 374.869 276.487 373.988 276.487C373.108 276.487 372.395 277.2 372.395 278.08C372.395 278.959 373.108 279.672 373.988 279.672Z" fill="#E6E6E6"/>
<path d="M78.8325 124.098C81.4734 124.098 83.6143 121.959 83.6143 119.321C83.6143 116.682 81.4734 114.544 78.8325 114.544C76.1916 114.544 74.0508 116.682 74.0508 119.321C74.0508 121.959 76.1916 124.098 78.8325 124.098Z" fill="white"/>
<path d="M186.969 192.623C186.969 206.89 164.888 240.137 158.436 249.548C158.241 249.833 157.98 250.065 157.675 250.226C157.369 250.387 157.03 250.471 156.685 250.471C156.34 250.471 156 250.387 155.695 250.226C155.39 250.065 155.129 249.833 154.934 249.548C148.481 240.137 126.4 206.89 126.4 192.623C126.4 188.649 127.184 184.715 128.706 181.045C130.228 177.374 132.458 174.039 135.27 171.229C138.083 168.42 141.421 166.191 145.095 164.671C148.77 163.15 152.708 162.368 156.685 162.368C160.662 162.368 164.6 163.15 168.274 164.671C171.948 166.191 175.287 168.42 178.099 171.229C180.911 174.039 183.142 177.374 184.664 181.045C186.186 184.715 186.969 188.649 186.969 192.623Z" fill="white"/>
<path d="M156.685 205.892C165.195 205.892 172.093 199.001 172.093 190.499C172.093 181.998 165.195 175.107 156.685 175.107C148.176 175.107 141.277 181.998 141.277 190.499C141.277 199.001 148.176 205.892 156.685 205.892Z" fill="#806DB3"/>
<path d="M156.418 266.933C166.248 266.933 174.217 265.388 174.217 263.483C174.217 261.578 166.248 260.033 156.418 260.033C146.588 260.033 138.619 261.578 138.619 263.483C138.619 265.388 146.588 266.933 156.418 266.933Z" fill="white"/>
<path d="M433.997 168.748C433.863 169.009 433.749 169.281 433.657 169.56L408.269 176.607L403.694 172.134L396.035 178.15L403.364 186.854C403.956 187.557 404.761 188.05 405.657 188.257C406.553 188.465 407.492 188.376 408.333 188.005L435.757 175.911C436.688 176.557 437.793 176.904 438.925 176.906C440.058 176.908 441.164 176.566 442.097 175.925C443.031 175.284 443.746 174.375 444.149 173.317C444.552 172.26 444.624 171.105 444.354 170.006C444.084 168.907 443.485 167.917 442.638 167.166C441.791 166.415 440.735 165.94 439.61 165.803C438.486 165.667 437.347 165.875 436.344 166.401C435.341 166.928 434.523 167.746 433.997 168.748Z" fill="#FFB8B8"/>
<path d="M407.375 177.02L397.846 184.43C397.575 184.64 397.261 184.79 396.927 184.869C396.593 184.948 396.245 184.954 395.908 184.887C395.571 184.819 395.253 184.68 394.975 184.479C394.697 184.278 394.465 184.019 394.296 183.72L388.374 173.249C387.302 171.857 386.826 170.097 387.051 168.355C387.275 166.613 388.183 165.031 389.573 163.957C390.964 162.882 392.724 162.402 394.468 162.622C396.212 162.842 397.798 163.744 398.877 165.131L407.558 173.408C407.806 173.645 408.001 173.932 408.128 174.251C408.255 174.57 408.312 174.913 408.294 175.256C408.277 175.598 408.186 175.933 408.027 176.238C407.869 176.542 407.646 176.809 407.375 177.02Z" fill="#806DB3"/>
<path d="M436.433 165.244L446.096 169.587C446.501 169.769 446.817 170.104 446.974 170.519C447.132 170.933 447.118 171.393 446.936 171.797L445.792 174.338C445.926 174.399 446.031 174.51 446.084 174.648C446.136 174.787 446.132 174.94 446.071 175.074L445.614 176.091C445.553 176.225 445.441 176.33 445.303 176.382C445.165 176.435 445.011 176.43 444.876 176.37L444.419 177.386C444.553 177.447 444.658 177.559 444.711 177.697C444.763 177.835 444.759 177.988 444.698 178.123L444.241 179.139C444.18 179.274 444.068 179.379 443.93 179.431C443.792 179.483 443.638 179.479 443.503 179.419L437.325 193.138C437.143 193.542 436.808 193.857 436.393 194.015C435.978 194.172 435.518 194.158 435.113 193.976L425.45 189.633C425.045 189.451 424.729 189.116 424.572 188.701C424.414 188.287 424.428 187.827 424.61 187.423L434.221 166.082C434.403 165.678 434.738 165.363 435.153 165.205C435.568 165.048 436.028 165.062 436.433 165.244Z" fill="#3F3D56"/>
<path d="M427.203 188.281L434.955 191.769C435.344 191.942 435.785 191.955 436.183 191.805C436.581 191.655 436.904 191.353 437.08 190.967L440.661 183.01L441.904 180.252L445.144 173.054C445.318 172.666 445.33 172.226 445.18 171.83C445.029 171.433 444.728 171.112 444.341 170.937L441.904 169.839L436.584 167.449C436.195 167.275 435.754 167.263 435.357 167.415C434.959 167.566 434.639 167.869 434.465 168.257L431.33 175.216L427.761 183.138L426.4 186.164C426.226 186.551 426.213 186.991 426.364 187.388C426.514 187.785 426.816 188.106 427.203 188.281Z" fill="#F2F2F2"/>
<path d="M411.005 286.862L417.519 286.861L420.618 261.761L411.004 261.762L411.005 286.862Z" fill="#FFB8B8"/>
<path d="M409.344 284.737L422.171 284.736C423.245 284.736 424.309 284.948 425.3 285.358C426.292 285.768 427.193 286.37 427.953 287.128C428.712 287.887 429.314 288.787 429.725 289.778C430.135 290.769 430.347 291.831 430.347 292.903V293.169H409.344V284.737Z" fill="#2F2E41"/>
<path d="M428.007 285.269H434.521L437.62 260.169H428.006L428.007 285.269Z" fill="#FFB8B8"/>
<path d="M426.346 283.145L439.173 283.144C440.247 283.144 441.311 283.355 442.302 283.766C443.294 284.176 444.195 284.778 444.954 285.536C445.714 286.294 446.316 287.195 446.727 288.186C447.137 289.176 447.349 290.238 447.349 291.311V291.576L426.346 291.577V283.145Z" fill="#2F2E41"/>
<path d="M381.787 227.963C383.174 232.072 385.807 235.65 389.319 238.199C392.832 240.749 397.05 242.144 401.392 242.193L401.721 242.198C405.084 242.294 409.032 241.211 412.905 239.656C420.556 236.583 427.904 231.662 429.854 230.309L426.549 262.045L425.21 274.911C425.176 275.244 425.213 275.58 425.317 275.898C425.421 276.216 425.591 276.509 425.815 276.757C426.039 277.006 426.313 277.204 426.619 277.341C426.924 277.477 427.255 277.548 427.59 277.549H435.841C436.371 277.549 436.885 277.374 437.304 277.052C437.723 276.729 438.023 276.277 438.158 275.765L451.781 223.934C452.189 222.382 452.222 220.756 451.876 219.19C451.531 217.623 450.817 216.161 449.793 214.925C448.77 213.689 447.467 212.714 445.991 212.081C444.516 211.448 442.911 211.175 441.309 211.285L413.011 213.223L414.988 205.324L389.729 203.647L389.655 203.7C389.05 204.141 388.46 204.603 387.897 205.086C386.488 206.275 385.24 207.642 384.183 209.151C382.291 211.86 381.085 214.986 380.667 218.262C380.25 221.539 380.634 224.867 381.787 227.963Z" fill="#2F2E41"/>
<path d="M381.787 227.963C383.174 232.072 385.807 235.65 389.319 238.199C392.832 240.749 397.05 242.144 401.392 242.193C405.543 240.094 409.549 237.72 413.383 235.086L412.905 239.656L408.74 279.688C408.706 280.021 408.742 280.357 408.846 280.675C408.95 280.993 409.12 281.286 409.344 281.534C409.569 281.783 409.842 281.982 410.148 282.118C410.454 282.254 410.785 282.325 411.12 282.326H419.371C419.9 282.326 420.414 282.151 420.833 281.829C421.253 281.506 421.553 281.054 421.687 280.543L426.549 262.045L435.31 228.711C435.719 227.16 435.752 225.533 435.406 223.967C435.06 222.4 434.346 220.938 433.323 219.702C432.3 218.466 430.996 217.491 429.521 216.858C428.045 216.225 426.44 215.952 424.838 216.062L396.541 218L398.517 210.101L384.183 209.151C382.291 211.86 381.085 214.986 380.667 218.262C380.25 221.539 380.634 224.867 381.787 227.963Z" fill="#2F2E41"/>
<path d="M387.862 206.917L387.672 206.894L383.265 185.245C383.227 185.058 379.624 166.385 390.67 156.623L390.862 155.287C390.911 154.945 391.034 154.618 391.222 154.328C391.41 154.038 391.659 153.792 391.951 153.608C392.243 153.423 392.572 153.304 392.915 153.259C393.258 153.214 393.606 153.243 393.936 153.345L404.342 156.57C404.931 156.751 405.427 157.153 405.726 157.692C406.025 158.23 406.104 158.863 405.946 159.458L404.934 163.302C406.337 164.948 422.847 184.806 417.096 200.105L414.521 210.164L387.862 206.917Z" fill="#806DB3"/>
<path d="M431.066 190.021C430.818 190.177 430.581 190.353 430.36 190.547L404.912 183.722L403.248 177.547L393.592 178.837L395.474 190.055C395.626 190.961 396.068 191.794 396.734 192.427C397.4 193.061 398.254 193.462 399.167 193.57L428.937 197.083C429.41 198.111 430.185 198.971 431.159 199.549C432.133 200.126 433.26 200.393 434.39 200.315C435.52 200.237 436.599 199.817 437.484 199.111C438.369 198.406 439.018 197.447 439.345 196.364C439.672 195.28 439.66 194.123 439.313 193.047C438.965 191.97 438.297 191.024 437.399 190.336C436.5 189.647 435.413 189.248 434.282 189.192C433.151 189.136 432.029 189.425 431.066 190.021Z" fill="#FFB8B8"/>
<path d="M403.932 183.623L391.956 185.164C391.615 185.208 391.269 185.178 390.941 185.076C390.613 184.974 390.311 184.803 390.055 184.574C389.799 184.345 389.596 184.063 389.458 183.749C389.321 183.434 389.254 183.093 389.26 182.75L389.489 170.725C389.274 168.982 389.76 167.225 390.84 165.84C391.92 164.454 393.506 163.553 395.25 163.333C396.994 163.114 398.754 163.595 400.144 164.67C401.534 165.745 402.44 167.327 402.665 169.069L405.928 180.605C406.021 180.936 406.042 181.282 405.989 181.621C405.937 181.961 405.811 182.284 405.622 182.571C405.432 182.857 405.184 183.099 404.892 183.281C404.6 183.463 404.273 183.579 403.932 183.623Z" fill="#806DB3"/>
<path d="M400.561 150.407C407.768 150.407 413.61 144.57 413.61 137.37C413.61 130.17 407.768 124.334 400.561 124.334C393.354 124.334 387.512 130.17 387.512 137.37C387.512 144.57 393.354 150.407 400.561 150.407Z" fill="#FFB8B8"/>
<path d="M399.874 138.459L398.24 135.487C395.146 148.084 400.612 158.509 400.612 158.509L379.396 148.636L379.598 145.133L377.499 147.513L374.482 145.852L374.084 143.58L371.807 144.143L380.118 129.076C388.185 114.737 399.912 120.211 399.912 120.211C418.569 119.325 416.29 137.714 416.29 137.714L399.874 138.459Z" fill="#2F2E41"/>
<path d="M251.329 235.611C254.337 233.684 250.678 222.619 243.156 210.896C235.634 199.174 227.097 191.233 224.088 193.159C221.08 195.086 224.739 206.151 232.261 217.874C239.783 229.597 248.32 237.537 251.329 235.611Z" fill="#3F3D56"/>
</g>
</g>
<defs>
<clipPath id="clip0_101_2">
<rect width="522" height="405" fill="white"/>
</clipPath>
</defs>
</svg>
