<svg width="652" height="408" viewBox="0 0 652 408" fill="none" xmlns="http://www.w3.org/2000/svg">
<g clip-path="url(#clip0_101_49)">
<mask id="mask0_101_49" style="mask-type:luminance" maskUnits="userSpaceOnUse" x="0" y="0" width="652" height="408">
<path d="M652 0H0V407.2H652V0Z" fill="white"/>
</mask>
<g mask="url(#mask0_101_49)">
<path d="M170.399 248.165C238.904 248.165 294.439 192.611 294.439 124.082C294.439 55.5536 238.904 0 170.399 0C101.894 0 46.3594 55.5536 46.3594 124.082C46.3594 192.611 101.894 248.165 170.399 248.165Z" fill="#F2F2F2"/>
<path d="M0 29.7928C0 74.9389 28.3126 111.471 63.3014 111.471L0 29.7928Z" fill="#2F2E41"/>
<path d="M63.3008 111.471C63.3008 65.8172 94.896 28.8751 133.942 28.8751L63.3008 111.471Z" fill="#806DB3"/>
<path d="M22.9355 33.8854C22.9355 76.7694 40.9899 111.471 63.3017 111.471L22.9355 33.8854Z" fill="#806DB3"/>
<path d="M63.3008 111.471C63.3008 53.1357 99.8199 5.93188 144.95 5.93188L63.3008 111.471Z" fill="#2F2E41"/>
<path d="M49.9844 112.046C49.9844 112.046 58.9616 111.77 61.6671 109.843C64.3726 107.915 75.4762 105.614 76.1474 108.705C76.8186 111.796 89.6384 124.077 79.5032 124.159C69.368 124.241 55.9535 122.58 53.2533 120.935C50.553 119.289 49.9844 112.046 49.9844 112.046Z" fill="#A8A8A8"/>
<path opacity="0.2" d="M79.6841 123.083C69.5489 123.165 56.1344 121.504 53.4341 119.859C51.3777 118.606 50.5583 114.109 50.2841 112.035C50.0942 112.043 49.9844 112.046 49.9844 112.046C49.9844 112.046 50.553 119.289 53.2533 120.934C55.9536 122.58 69.368 124.241 79.5033 124.159C82.4289 124.136 83.4394 123.094 83.384 121.552C82.9775 122.484 81.8617 123.066 79.6841 123.083Z" fill="black"/>
<path d="M115.658 262.111C175.802 262.111 224.557 255.476 224.557 247.291C224.557 239.106 175.802 232.471 115.658 232.471C55.5154 232.471 6.75977 239.106 6.75977 247.291C6.75977 255.476 55.5154 262.111 115.658 262.111Z" fill="#3F3D56"/>
<path opacity="0.1" d="M115.659 259.733C166.153 259.733 207.087 254.163 207.087 247.291C207.087 240.419 166.153 234.849 115.659 234.849C65.1643 234.849 24.2305 240.419 24.2305 247.291C24.2305 254.163 65.1643 259.733 115.659 259.733Z" fill="black"/>
<path d="M487.197 407.2C578.215 407.2 652 397.159 652 384.772C652 372.385 578.215 362.344 487.197 362.344C396.178 362.344 322.393 372.385 322.393 384.772C322.393 397.159 396.178 407.2 487.197 407.2Z" fill="#3F3D56"/>
<path d="M180.882 389.506C235.557 389.506 279.88 383.475 279.88 376.034C279.88 368.593 235.557 362.561 180.882 362.561C126.206 362.561 81.8828 368.593 81.8828 376.034C81.8828 383.475 126.206 389.506 180.882 389.506Z" fill="#3F3D56"/>
<path d="M269.398 364.674C321.81 378.073 422.555 347.198 433.62 312.245" stroke="#2F2E41" stroke-width="2" stroke-miterlimit="10"/>
<path d="M180.299 150.88C180.299 150.88 256.004 129.908 260.663 197.483C265.321 265.059 198.352 284.283 250.763 297.681" stroke="#2F2E41" stroke-width="2" stroke-miterlimit="10"/>
<path d="M107.158 312.993C107.158 312.993 129.912 306.689 131.312 327C132.712 347.31 112.584 353.088 128.337 357.115" stroke="#2F2E41" stroke-width="2" stroke-miterlimit="10"/>
<path d="M453.476 328.113L448.889 357.413C448.889 357.413 426.304 369.415 442.184 369.768C458.064 370.121 532.875 369.768 532.875 369.768C532.875 369.768 547.343 369.768 524.405 357.06L519.818 326.348L453.476 328.113Z" fill="#2F2E41"/>
<path opacity="0.1" d="M438.989 369.45C442.595 366.24 448.888 362.895 448.888 362.895L453.475 333.596L519.817 333.658L524.405 362.542C529.753 365.505 533.067 367.777 535.005 369.52C537.951 368.847 541.171 366.349 524.405 357.06L519.817 326.348L453.475 328.113L448.888 357.413C448.888 357.413 429.91 367.499 438.989 369.45Z" fill="black"/>
<path d="M625.23 123.901H347.356C341.553 123.901 336.848 128.608 336.848 134.413V321.661C336.848 327.466 341.553 332.173 347.356 332.173H625.23C631.034 332.173 635.739 327.466 635.739 321.661V134.413C635.739 128.608 631.034 123.901 625.23 123.901Z" fill="#2F2E41"/>
<path d="M625.683 135.021H346.906V291.048H625.683V135.021Z" fill="#3F3D56"/>
<path d="M486.294 131.844C487.268 131.844 488.058 131.053 488.058 130.079C488.058 129.104 487.268 128.314 486.294 128.314C485.319 128.314 484.529 129.104 484.529 130.079C484.529 131.053 485.319 131.844 486.294 131.844Z" fill="#F2F2F2"/>
<path d="M635.739 303.403V321.661C635.739 323.041 635.467 324.408 634.939 325.684C634.411 326.959 633.637 328.118 632.661 329.094C631.685 330.071 630.527 330.845 629.252 331.373C627.976 331.901 626.61 332.173 625.23 332.173H347.357C345.976 332.173 344.61 331.901 343.335 331.373C342.06 330.845 340.901 330.071 339.925 329.094C338.949 328.118 338.175 326.959 337.647 325.684C337.119 324.408 336.847 323.041 336.848 321.661V303.403H635.739Z" fill="#2F2E41"/>
<path d="M564.28 388.83V392.36H374.43V389.536L374.691 388.83L379.37 376.122H560.398L564.28 388.83Z" fill="#2F2E41"/>
<path d="M637.34 385.374C636.994 386.853 635.689 388.413 632.739 389.889C622.152 395.184 600.626 388.477 600.626 388.477C600.626 388.477 584.041 385.653 584.041 378.24C584.507 377.921 584.992 377.632 585.495 377.375C589.946 375.02 604.703 369.207 630.87 377.621C632.798 378.226 634.52 379.355 635.844 380.882C636.904 382.123 637.735 383.698 637.34 385.374Z" fill="#2F2E41"/>
<path opacity="0.1" d="M637.341 385.374C624.384 390.341 612.834 390.711 600.981 382.476C595.003 378.325 589.572 377.297 585.496 377.375C589.947 375.019 604.704 369.207 630.871 377.621C632.799 378.226 634.521 379.355 635.845 380.882C636.905 382.123 637.737 383.698 637.341 385.374Z" fill="black"/>
<path d="M621.095 382.476C623.629 382.476 625.683 381.844 625.683 381.064C625.683 380.284 623.629 379.652 621.095 379.652C618.562 379.652 616.508 380.284 616.508 381.064C616.508 381.844 618.562 382.476 621.095 382.476Z" fill="#F2F2F2"/>
<path d="M486.295 324.583C489.998 324.583 492.999 321.581 492.999 317.876C492.999 314.172 489.998 311.169 486.295 311.169C482.592 311.169 479.59 314.172 479.59 317.876C479.59 321.581 482.592 324.583 486.295 324.583Z" fill="#F2F2F2"/>
<path opacity="0.1" d="M564.28 388.83V392.36H374.43V389.536L374.691 388.83H564.28Z" fill="black"/>
<path d="M184.376 92.6249H63.248V233.601H184.376V92.6249Z" fill="#2F2E41"/>
<path d="M196.606 78.6438H51.0195V128.743H196.606V78.6438Z" fill="#3F3D56"/>
<path d="M196.606 138.064H51.0195V188.163H196.606V138.064Z" fill="#3F3D56"/>
<path d="M196.606 197.483H51.0195V247.582H196.606V197.483Z" fill="#3F3D56"/>
<path opacity="0.4" d="M167.487 87.382H158.17V96.7027H167.487V87.382Z" fill="#806DB3"/>
<path opacity="0.8" d="M180.882 87.382H171.564V96.7027H180.882V87.382Z" fill="#806DB3"/>
<path d="M194.277 87.382H184.959V96.7027H194.277V87.382Z" fill="#806DB3"/>
<path opacity="0.4" d="M167.487 146.219H158.17V155.54H167.487V146.219Z" fill="#806DB3"/>
<path opacity="0.8" d="M180.882 146.219H171.564V155.54H180.882V146.219Z" fill="#806DB3"/>
<path d="M194.277 146.219H184.959V155.54H194.277V146.219Z" fill="#806DB3"/>
<path opacity="0.4" d="M167.487 205.056H158.17V214.377H167.487V205.056Z" fill="#806DB3"/>
<path opacity="0.8" d="M180.882 205.056H171.564V214.377H180.882V205.056Z" fill="#806DB3"/>
<path d="M194.277 205.056H184.959V214.377H194.277V205.056Z" fill="#806DB3"/>
<path d="M184.376 359.431C209.784 359.431 230.382 338.827 230.382 313.41C230.382 287.993 209.784 267.389 184.376 267.389C158.968 267.389 138.371 287.993 138.371 313.41C138.371 338.827 158.968 359.431 184.376 359.431Z" fill="#2F2E41"/>
<path d="M177.388 349.528H163.412V374.577H177.388V349.528Z" fill="#2F2E41"/>
<path d="M205.34 349.528H191.363V374.577H205.34V349.528Z" fill="#2F2E41"/>
<path d="M175.059 379.238C181.491 379.238 186.706 377.282 186.706 374.869C186.706 372.456 181.491 370.5 175.059 370.5C168.627 370.5 163.412 372.456 163.412 374.869C163.412 377.282 168.627 379.238 175.059 379.238Z" fill="#2F2E41"/>
<path d="M203.01 378.655C209.443 378.655 214.657 376.699 214.657 374.286C214.657 371.873 209.443 369.917 203.01 369.917C196.578 369.917 191.363 371.873 191.363 374.286C191.363 376.699 196.578 378.655 203.01 378.655Z" fill="#2F2E41"/>
<path d="M185.542 317.488C194.225 317.488 201.265 310.446 201.265 301.759C201.265 293.072 194.225 286.03 185.542 286.03C176.858 286.03 169.818 293.072 169.818 301.759C169.818 310.446 176.858 317.488 185.542 317.488Z" fill="white"/>
<path d="M185.54 307.002C188.435 307.002 190.781 304.655 190.781 301.759C190.781 298.864 188.435 296.516 185.54 296.516C182.645 296.516 180.299 298.864 180.299 301.759C180.299 304.655 182.645 307.002 185.54 307.002Z" fill="#3F3D56"/>
<path d="M139.748 270.612C136.034 253.97 147.908 237.154 166.271 233.052C184.633 228.95 202.531 239.116 206.245 255.758C209.96 272.4 197.791 278.538 179.428 282.64C161.065 286.741 143.463 287.254 139.748 270.612Z" fill="#806DB3"/>
<path d="M227.525 304.231C239.204 299.231 247.4 292.204 245.831 288.536C244.262 284.868 233.522 285.949 221.842 290.949C210.163 295.95 201.967 302.977 203.537 306.644C205.106 310.312 215.846 309.232 227.525 304.231Z" fill="#2F2E41"/>
<path d="M141.338 335.106C153.017 330.106 161.213 323.079 159.643 319.411C158.074 315.743 147.334 316.824 135.655 321.824C123.976 326.825 115.78 333.852 117.349 337.519C118.918 341.187 129.659 340.107 141.338 335.106Z" fill="#2F2E41"/>
<path d="M211.163 326.809C211.163 331.313 199.57 340.207 186.705 340.207C173.84 340.207 161.664 331.895 161.664 327.391C161.664 322.887 173.84 323.896 186.705 323.896C199.57 323.896 211.163 322.304 211.163 326.809Z" fill="white"/>
</g>
</g>
<defs>
<clipPath id="clip0_101_49">
<rect width="652" height="408" fill="white"/>
</clipPath>
</defs>
</svg>
