<svg width="472" height="494" viewBox="0 0 472 494" fill="none" xmlns="http://www.w3.org/2000/svg">
<g clip-path="url(#clip0_101_104)">
<mask id="mask0_101_104" style="mask-type:luminance" maskUnits="userSpaceOnUse" x="0" y="0" width="472" height="494">
<path d="M472 0H0V494H472V0Z" fill="white"/>
</mask>
<g mask="url(#mask0_101_104)">
<path d="M182.586 494C283.425 494 365.171 479.556 365.171 461.738C365.171 443.919 283.425 429.475 182.586 429.475C81.7464 429.475 0 443.919 0 461.738C0 479.556 81.7464 494 182.586 494Z" fill="#3F3D56"/>
<path d="M293.558 356.959C392.109 356.959 472.001 277.051 472.001 178.479C472.001 79.9079 392.109 0 293.558 0C195.007 0 115.115 79.9079 115.115 178.479C115.115 277.051 195.007 356.959 293.558 356.959Z" fill="#3F3D56"/>
<path opacity="0.05" d="M293.558 325.82C374.915 325.82 440.868 259.853 440.868 178.479C440.868 97.1055 374.915 31.139 293.558 31.139C212.201 31.139 146.248 97.1055 146.248 178.479C146.248 259.853 212.201 325.82 293.558 325.82Z" fill="black"/>
<path opacity="0.05" d="M293.558 299.238C360.237 299.238 414.291 245.172 414.291 178.479C414.291 111.786 360.237 57.7209 293.558 57.7209C226.878 57.7209 172.824 111.786 172.824 178.479C172.824 245.172 226.878 299.238 293.558 299.238Z" fill="black"/>
<path opacity="0.05" d="M293.558 265.061C341.366 265.061 380.121 226.297 380.121 178.479C380.121 130.662 341.366 91.8979 293.558 91.8979C245.75 91.8979 206.994 130.662 206.994 178.479C206.994 226.297 245.75 265.061 293.558 265.061Z" fill="black"/>
<path d="M116.696 194.452C116.696 194.452 102.667 233.95 108.902 247.982C115.137 262.014 125.01 275.526 125.01 275.526C125.01 275.526 121.372 197.051 116.696 194.452Z" fill="#D0CDE1"/>
<path opacity="0.1" d="M116.696 194.452C116.696 194.452 102.667 233.95 108.902 247.982C115.137 262.014 125.01 275.526 125.01 275.526C125.01 275.526 121.372 197.051 116.696 194.452Z" fill="black"/>
<path d="M126.568 285.92C126.568 285.92 125.529 295.795 125.009 296.314C124.489 296.834 125.529 297.873 125.009 299.433C124.489 300.992 123.97 303.071 125.009 303.59C126.048 304.11 119.293 349.844 119.293 349.844C119.293 349.844 102.666 371.672 109.421 405.972L111.499 440.793C111.499 440.793 127.607 441.832 127.607 436.115C127.607 436.115 126.568 429.359 126.568 426.241C126.568 423.122 129.166 423.122 127.607 421.563C126.048 420.004 126.048 418.965 126.048 418.965C126.048 418.965 128.646 416.886 128.127 416.366C127.607 415.847 132.803 378.948 132.803 378.948C132.803 378.948 138.519 373.231 138.519 370.113V366.994C138.519 366.994 141.117 360.238 141.117 359.718C141.117 359.199 155.146 327.497 155.146 327.497L160.861 350.364L167.096 383.105C167.096 383.105 170.214 412.728 176.449 424.162C176.449 424.162 187.361 461.581 187.361 460.541C187.361 459.502 205.547 456.903 205.027 452.226C204.508 447.549 194.116 382.066 194.116 382.066L196.714 284.881L126.568 285.92Z" fill="#2F2E41"/>
<path d="M112.538 438.194C112.538 438.194 98.5087 465.738 107.862 466.778C117.214 467.817 120.851 467.817 125.008 463.66C127.281 461.387 131.883 458.337 135.588 456.039C137.783 454.7 139.557 452.768 140.705 450.467C141.853 448.165 142.33 445.587 142.08 443.027C141.806 440.484 140.856 438.389 138.518 438.194C132.283 437.674 125.008 431.958 125.008 431.958L112.538 438.194Z" fill="#2F2E41"/>
<path d="M189.958 458.462C189.958 458.462 175.929 486.007 185.281 487.046C194.634 488.086 198.271 488.086 202.428 483.928C204.701 481.655 209.303 478.605 213.008 476.308C215.203 474.968 216.977 473.037 218.125 470.735C219.273 468.434 219.75 465.855 219.5 463.295C219.226 460.752 218.276 458.657 215.938 458.462C209.703 457.943 202.428 452.226 202.428 452.226L189.958 458.462Z" fill="#2F2E41"/>
<path d="M175.131 149.376C187.194 149.376 196.973 139.595 196.973 127.53C196.973 115.464 187.194 105.683 175.131 105.683C163.068 105.683 153.289 115.464 153.289 127.53C153.289 139.595 163.068 149.376 175.131 149.376Z" fill="#FFB8B8"/>
<path d="M161.089 134.708C161.089 134.708 145.488 163.421 144.24 163.421C142.992 163.421 172.322 172.783 172.322 172.783C172.322 172.783 180.435 145.319 181.683 142.822L161.089 134.708Z" fill="#FFB8B8"/>
<path d="M185.023 166.128C185.023 166.128 153.847 148.978 150.729 149.497C147.612 150.017 114.358 179.121 114.877 191.074C115.397 203.027 119.554 222.776 119.554 222.776C119.554 222.776 121.112 277.865 124.23 278.384C127.347 278.904 123.71 288.259 124.749 288.259C125.789 288.259 197.493 288.259 198.013 286.7C198.533 285.141 185.023 166.128 185.023 166.128Z" fill="#D0CDE1"/>
<path d="M202.429 289.558C202.429 289.558 212.301 319.701 203.988 318.662C195.674 317.622 192.037 292.676 192.037 292.676L202.429 289.558Z" fill="#FFB8B8"/>
<path d="M175.93 164.309C175.93 164.309 156.705 168.467 159.822 194.452C162.94 220.437 168.656 246.423 168.656 246.423L187.881 288.519L189.959 296.314L203.988 292.676L193.596 232.391C193.596 232.391 189.959 167.947 185.283 165.868C182.334 164.611 179.127 164.076 175.93 164.309Z" fill="#D0CDE1"/>
<path opacity="0.1" d="M164.238 245.643L188.14 288.259L168.002 243.353L164.238 245.643Z" fill="black"/>
<path d="M196.877 121.097L196.949 119.428L200.27 120.254C200.234 119.718 200.083 119.197 199.826 118.725C199.569 118.253 199.213 117.843 198.782 117.522L202.319 117.324C199.351 113.106 195.559 109.533 191.172 106.822C186.785 104.11 181.895 102.316 176.795 101.548C169.145 100.439 160.627 102.043 155.381 107.722C152.837 110.477 151.238 113.979 150.1 117.553C148.006 124.135 147.579 131.98 151.947 137.33C156.386 142.768 164.14 143.833 171.126 144.506C173.584 144.742 176.16 144.963 178.438 144.009C178.692 141.396 178.357 138.759 177.459 136.291C177.085 135.528 176.907 134.683 176.939 133.833C177.25 131.754 180.022 131.231 182.105 131.512C184.187 131.792 186.691 132.222 188.06 130.627C189.002 129.528 188.947 127.928 189.072 126.486C189.412 122.559 196.841 121.92 196.877 121.097Z" fill="#2F2E41"/>
<path d="M330.844 466.177C344.899 466.177 356.294 454.781 356.294 440.723C356.294 426.664 344.899 415.268 330.844 415.268C316.789 415.268 305.395 426.664 305.395 440.723C305.395 454.781 316.789 466.177 330.844 466.177Z" fill="#806DB3"/>
<path d="M31.9593 457.298C46.0147 457.298 57.4088 445.901 57.4088 431.843C57.4088 417.785 46.0147 406.388 31.9593 406.388C17.9039 406.388 6.50977 417.785 6.50977 431.843C6.50977 445.901 17.9039 457.298 31.9593 457.298Z" fill="#806DB3"/>
<path d="M31.9606 416.452C42.0936 416.452 50.308 408.236 50.308 398.101C50.308 387.966 42.0936 379.75 31.9606 379.75C21.8277 379.75 13.6133 387.966 13.6133 398.101C13.6133 408.236 21.8277 416.452 31.9606 416.452Z" fill="#806DB3"/>
<path d="M31.9601 382.709C39.1513 382.709 44.9808 376.879 44.9808 369.686C44.9808 362.493 39.1513 356.663 31.9601 356.663C24.769 356.663 18.9395 362.493 18.9395 369.686C18.9395 376.879 24.769 382.709 31.9601 382.709Z" fill="#806DB3"/>
</g>
</g>
<defs>
<clipPath id="clip0_101_104">
<rect width="472" height="494" fill="white"/>
</clipPath>
</defs>
</svg>
