<svg width="351" height="225" viewBox="0 0 351 225" fill="none" xmlns="http://www.w3.org/2000/svg">
<g clip-path="url(#clip0_179_5434)">
<path d="M351 0.198975H0.149902V225H351V0.198975Z" fill="#E6E6E6"/>
<path d="M340.967 28.3947H10.1821V211.701H340.967V28.3947Z" fill="white"/>
<path d="M350.85 0H0V14.9121H350.85V0Z" fill="#4D3595"/>
<path d="M11.0766 10.3877C12.6023 10.3877 13.8392 9.15028 13.8392 7.62386C13.8392 6.09743 12.6023 4.86002 11.0766 4.86002C9.55082 4.86002 8.31396 6.09743 8.31396 7.62386C8.31396 9.15028 9.55082 10.3877 11.0766 10.3877Z" fill="white"/>
<path d="M21.5624 10.3877C23.0881 10.3877 24.325 9.15028 24.325 7.62386C24.325 6.09743 23.0881 4.86002 21.5624 4.86002C20.0367 4.86002 18.7998 6.09743 18.7998 7.62386C18.7998 9.15028 20.0367 10.3877 21.5624 10.3877Z" fill="white"/>
<path d="M32.0487 10.3877C33.5745 10.3877 34.8113 9.15028 34.8113 7.62386C34.8113 6.09743 33.5745 4.86002 32.0487 4.86002C30.523 4.86002 29.2861 6.09743 29.2861 7.62386C29.2861 9.15028 30.523 10.3877 32.0487 10.3877Z" fill="white"/>
<path d="M115.579 43.4715H50.8818V113.693H115.579V43.4715Z" fill="#E6E6E6"/>
<path d="M207.922 43.4715H143.226V113.693H207.922V43.4715Z" fill="#E6E6E6"/>
<path d="M300.267 43.4715H235.57V113.693H300.267V43.4715Z" fill="#E6E6E6"/>
<path d="M115.579 126.404H50.8818V196.625H115.579V126.404Z" fill="#E6E6E6"/>
<path d="M207.922 126.404H143.226V196.625H207.922V126.404Z" fill="#E6E6E6"/>
<path d="M300.267 126.404H235.57V196.625H300.267V126.404Z" fill="#E6E6E6"/>
<path d="M76.0119 85.9324C82.0519 85.9324 86.9482 81.0339 86.9482 74.9912C86.9482 68.9486 82.0519 64.05 76.0119 64.05C69.972 64.05 65.0757 68.9486 65.0757 74.9912C65.0757 81.0339 69.972 85.9324 76.0119 85.9324Z" fill="#FFB9B9"/>
<path d="M71.7402 83.368C71.7402 83.368 73.1073 89.8644 73.1073 90.5482C73.1073 91.232 79.6007 94.3092 79.6007 94.3092L85.4106 93.2835L87.4611 87.1291C87.4611 87.1291 84.0435 82.0004 84.0435 79.9489L71.7402 83.368Z" fill="#FFB9B9"/>
<path d="M66.5281 66.1763C66.5281 66.1763 70.0003 58.6497 76.6554 60.3866C83.3105 62.1235 87.0721 64.7288 87.3614 67.3342C87.6508 69.9395 87.2168 73.8475 87.2168 73.8475C87.2168 73.8475 86.4934 68.4921 81.8637 69.65C77.2341 70.8079 70.0003 69.9395 70.0003 69.9395L68.8429 80.3608C68.8429 80.3608 67.5408 78.4792 66.0941 79.6371C64.6473 80.7951 61.8985 68.4921 66.5281 66.1763Z" fill="#2F2E41"/>
<path d="M110.699 111.063L107.968 98.7524C106.598 94.6488 103.183 91.2327 103.183 91.2327L86.3292 85.3028H86.3249C86.292 86.7933 85.7898 88.2353 84.8898 89.4236C83.9898 90.6118 82.7379 91.4855 81.3125 91.9202C76.1842 93.6261 72.6536 87.8767 72.6536 87.8767L58.4069 98.7524C58.4069 98.7524 53.9658 102.517 54.3094 109.697L53.8369 113.693H112.014L110.699 111.063Z" fill="#4D3595"/>
<path d="M168.109 91.3848C176.307 91.3848 182.953 84.3268 182.953 75.6204C182.953 66.9139 176.307 59.856 168.109 59.856C159.911 59.856 153.265 66.9139 153.265 75.6204C153.265 84.3268 159.911 91.3848 168.109 91.3848Z" fill="#2F2E41"/>
<path d="M181.28 99.4763C185.592 99.4763 189.089 95.9785 189.089 91.6638C189.089 87.3491 185.592 83.8514 181.28 83.8514C176.967 83.8514 173.471 87.3491 173.471 91.6638C173.471 95.9785 176.967 99.4763 181.28 99.4763Z" fill="#2F2E41"/>
<path d="M175.841 81.2009L180.025 92.0822L169.427 96.5468L168.496 94.4365L165.243 87.0603L175.841 81.2009Z" fill="#9F616A"/>
<path d="M167.475 88.3156C172.635 88.3156 176.818 84.1308 176.818 78.9686C176.818 73.8064 172.635 69.6216 167.475 69.6216C162.315 69.6216 158.132 73.8064 158.132 78.9686C158.132 84.1308 162.315 88.3156 167.475 88.3156Z" fill="#9F616A"/>
<path d="M159.838 77.9434C165.71 74.0231 167.466 73.086 174.197 74.6003L174.6 64.7762L157.207 68.4266L159.838 77.9434Z" fill="#2F2E41"/>
<path d="M197.593 100.17L197.335 100.201C197.329 100.191 197.322 100.183 197.314 100.175C196.291 99.1521 191.412 97.2914 187.774 96.0023H187.77C185.459 95.1816 183.651 94.5929 183.651 94.5929L179.253 90.0682C178.145 91.3143 175.804 92.2768 173.579 92.9558C171.876 93.4716 170.143 93.8848 168.391 94.1933H168.386L167.476 97.1024C167.476 97.1024 157.155 104.919 156.321 105.752H156.317V105.761C156.251 105.856 156.223 105.973 156.24 106.087V106.109C155.719 108.604 155.452 111.145 155.441 113.693H200.385V111.055C200.385 107.428 197.593 100.17 197.593 100.17Z" fill="#575A89"/>
<path d="M280.238 113.693H258.016L256.792 101.614L256.719 100.879L256.568 99.4228L255.954 93.3339L255.185 99.874L253.562 113.693H249.524L249.675 109.392L249.825 105.03L249.889 103.273L250.718 79.3643C250.655 75.5756 251.853 71.8734 254.124 68.841C255.385 67.1986 257.013 65.8736 258.876 64.9716C260.74 64.0697 262.788 63.6157 264.858 63.6459C266.97 63.639 269.054 64.1216 270.949 65.0557C272.843 65.9898 274.495 67.3501 275.776 69.0301C278.123 72.0928 279.38 75.853 279.345 79.7124L279.727 94.1847L280.238 113.693Z" fill="#2F2E41"/>
<path d="M264.858 87.92C270.257 87.92 274.633 83.5417 274.633 78.1409C274.633 72.74 270.257 68.3617 264.858 68.3617C259.46 68.3617 255.083 72.74 255.083 78.1409C255.083 83.5417 259.46 87.92 264.858 87.92Z" fill="#FBBEBE"/>
<path d="M259.971 85.1259C259.971 85.1259 262.764 94.5558 259.971 97.3498C257.178 100.144 256.48 101.192 256.48 101.192L264.509 112.019L278.473 94.9051C278.473 94.9051 268.698 92.111 271.142 84.4274L259.971 85.1259Z" fill="#FBBEBE"/>
<path d="M290.126 113.693H281.879L281.742 112.279L281.617 110.973L285.414 110.496L289.993 109.925L290.044 111.39L290.126 113.693Z" fill="#FBBEBE"/>
<path d="M290.691 111.32C290.691 111.32 289.295 102.589 288.248 99.0961C287.2 95.6036 286.153 95.6036 286.153 95.6036L286.153 95.6028C284.92 94.3695 281.957 94.1504 279.727 94.1847C278.164 94.2019 276.961 94.3394 276.961 94.3394L264.51 107.48L258.239 99.1392V99.1349C257.674 99.1788 257.115 99.2752 256.568 99.4228C256.098 99.5427 255.636 99.6934 255.185 99.874C253.243 100.704 251.453 101.853 249.889 103.273H249.885C248.983 104.085 248.451 104.682 248.451 104.682C247.07 107.555 246.029 110.579 245.35 113.693H285.251L285.341 111.897V111.894L290.691 111.32Z" fill="#4D3595"/>
<path d="M256.655 76.5692C262.968 73.1641 265.561 73.3083 273.411 76.5692L275.506 71.4637C275.505 70.5024 275.123 69.5808 274.443 68.901C273.764 68.2213 272.842 67.8389 271.882 67.8378H257.835C256.874 67.8389 255.953 68.2213 255.274 68.901C254.594 69.5808 254.212 70.5024 254.211 71.4637L256.655 76.5692Z" fill="#2F2E41"/>
<path d="M82.3746 143.4C81.8545 143.357 81.3337 143.474 80.8812 143.734C80.4519 144.1 80.1072 144.555 79.871 145.068C78.7781 146.988 77.2986 148.66 75.5261 149.978C74.2351 150.924 72.5937 152.104 72.8146 153.849C72.9311 154.425 73.1438 154.977 73.4439 155.482C74.6349 157.888 77.8849 159.747 77.5652 162.491C78.7485 160.509 77.1658 159.529 78.3491 157.548C78.9126 156.604 79.8915 155.538 80.7423 156.131C81.0272 156.33 81.2142 156.685 81.5108 156.86C82.2186 157.275 82.9715 156.481 83.598 155.918C85.7584 153.978 88.8306 154.486 91.5189 155.091C92.788 155.376 94.1821 155.751 94.9323 156.964C95.9187 158.56 93.9951 160.283 93.5091 162.087C93.4694 162.241 93.4676 162.402 93.5036 162.556C93.5397 162.711 93.6127 162.854 93.7163 162.975C93.82 163.095 93.9512 163.188 94.0987 163.247C94.2462 163.305 94.4057 163.327 94.5635 163.31C95.3702 163.231 96.3257 163.165 96.3735 162.811C97.3884 162.847 98.6319 162.732 99.0667 161.675C99.1996 161.257 99.2699 160.821 99.2752 160.382C99.4348 158.606 100.188 156.986 100.687 155.296C101.186 153.605 101.403 151.625 100.561 150.126C100.261 149.627 99.8888 149.175 99.4576 148.784C94.6778 144.156 88.3934 143.393 82.3746 143.4Z" fill="#2F2E41"/>
<path d="M78.6046 165.958C78.6046 165.958 79.6442 174.624 75.8326 175.318C72.021 176.011 79.2977 187.798 79.2977 187.798L96.6231 189.878L92.465 176.011C92.465 176.011 89.6929 174.971 91.4255 168.038C93.158 161.104 78.6046 165.958 78.6046 165.958Z" fill="#9F616A"/>
<path d="M86.4011 171.678C92.1423 171.678 96.7964 167.022 96.7964 161.278C96.7964 155.534 92.1423 150.878 86.4011 150.878C80.66 150.878 76.0059 155.534 76.0059 161.278C76.0059 167.022 80.66 171.678 86.4011 171.678Z" fill="#9F616A"/>
<path d="M68.5088 196.625C70.3471 189.393 72.8855 179.652 72.8855 179.652C72.8855 179.652 73.8733 179.854 75.4282 180.082C77.6994 180.42 79.9881 180.628 82.2831 180.705C85.2209 180.787 88.3134 180.593 90.7057 179.764C91.6076 179.474 92.4501 179.024 93.1926 178.436C93.5054 178.184 93.7853 177.894 94.0258 177.572C98.1835 172.025 99.9144 193.171 99.9144 193.171L100.236 196.625L68.5088 196.625Z" fill="#4D3595"/>
<path d="M101.722 218.97C101.585 218.97 101.448 218.974 101.31 218.983L101.508 218.613C101.576 218.729 101.645 218.849 101.722 218.97Z" fill="#FFB8B8"/>
<path d="M82.8812 146.121C82.4622 146.09 82.0425 146.172 81.6655 146.357C81.3246 146.606 81.0436 146.928 80.8431 147.3C79.9189 148.691 78.7141 149.873 77.3062 150.77C76.2552 151.439 74.9191 152.273 75.0989 153.506C75.1965 153.92 75.3702 154.311 75.6112 154.661C76.584 156.378 76.9713 158.366 76.7145 160.323L79.6042 156.121C80.0629 155.453 80.8598 154.7 81.5524 155.119C81.7843 155.26 81.9366 155.511 82.178 155.634C82.7542 155.928 83.3671 155.367 83.8771 154.969C85.6357 153.598 88.1366 153.957 90.325 154.384C91.3582 154.586 92.493 154.85 93.1037 155.708C94.1186 157.134 93.0588 159.193 93.6512 160.84C93.817 160.724 93.9578 160.575 94.0653 160.404C94.1728 160.232 94.2447 160.041 94.2769 159.841C95.103 159.866 96.1153 159.785 96.4693 159.038C96.5769 158.745 96.6343 158.436 96.639 158.124C96.7689 156.869 97.3822 155.724 97.7885 154.529C98.1948 153.334 98.3715 151.934 97.6858 150.875C97.435 150.516 97.1322 150.197 96.7875 149.927C92.8965 146.656 87.7807 146.116 82.8812 146.121Z" fill="#2F2E41"/>
<path d="M81.8963 179.996C79.5254 177.284 78.1166 173.331 78.0522 173.155V173.151C78.0522 173.151 74.2725 170.985 73.2331 173.065C72.1937 175.145 62.4911 180.344 61.4517 180.344C61.4435 180.348 61.4348 180.351 61.426 180.353C61.0136 180.49 55.851 182.368 54.5238 189.359C54.1633 191.765 53.971 194.193 53.9482 196.625H82.2055C82.4976 193.562 82.7167 190.695 82.8026 188.22C82.9271 184.77 82.8068 182.089 82.2828 180.705C82.1991 180.447 82.068 180.206 81.8963 179.996Z" fill="#2F2E41"/>
<path d="M106.194 181.947C106.176 181.865 106.164 181.796 106.151 181.732C106.105 181.548 106.026 181.373 105.919 181.216C105.916 181.212 105.915 181.208 105.914 181.203C103.913 178.101 91.0406 173.83 91.0406 173.83L90.5596 175.493C90.5596 175.493 90.6197 177.134 90.7056 179.764C90.7915 182.226 90.8946 185.552 90.9934 189.204C91.0621 191.589 91.1222 194.116 91.1781 196.625H110.433C109.354 191.642 107.938 186.738 106.194 181.947Z" fill="#2F2E41"/>
<path d="M286.346 196.625L287.819 189.424L289.19 188.843L289.198 188.848C289.323 188.895 290.813 189.527 290.813 191.92C290.813 192.401 290.74 194.133 290.62 196.625H286.346Z" fill="#575A89"/>
<path d="M270.872 171.47C277.48 171.47 282.837 166.111 282.837 159.501C282.837 152.89 277.48 147.531 270.872 147.531C264.265 147.531 258.908 152.89 258.908 159.501C258.908 166.111 264.265 171.47 270.872 171.47Z" fill="#FFB8B8"/>
<path d="M278.35 166.483L277.353 186.931L261.899 177.954L263.893 166.483H278.35Z" fill="#FFB8B8"/>
<path d="M282.837 187.928L281.823 196.625H273.71L264.905 179.699L262.423 174.934L261.233 174.156L262.612 173.843L263.698 174.629L275.858 183.442L277.808 177.585L277.859 177.435L278.349 175.961L282.837 187.928Z" fill="#4D3595"/>
<path d="M263.644 147.781C263.644 147.781 265.139 140.3 273.614 141.796L272.617 142.295C272.617 142.295 280.593 141.297 279.596 145.786C279.596 145.786 286.077 149.776 284.581 154.264C283.702 156.866 283.035 159.534 282.587 162.244L281.092 160.748C281.092 160.748 279.596 150.773 270.623 151.77C263.893 152.519 261.151 155.698 260.45 157.989C260.128 159.066 259.716 160.115 259.219 161.124L258.659 161.246C258.659 161.246 255.668 150.274 263.644 147.781Z" fill="#2F2E41"/>
<path d="M289.198 188.848L289.19 188.843L282.837 182.939V178.952L277.932 175.084L277.859 177.435L277.353 193.415L269.196 182.192L263.699 174.629L262.711 173.275L262.951 172.008L259.906 175.458L248.885 183.73L247.94 184.439C246.856 185.524 245.857 186.691 244.951 187.928C244.654 188.371 243.306 191.894 241.549 196.625H290.62C290.74 194.133 290.813 192.401 290.813 191.92C290.813 189.527 289.323 188.895 289.198 188.848Z" fill="#2F2E41"/>
<path d="M174.59 146.353C166.482 146.353 159.91 153.65 159.91 162.651V174.088H163.426L165.461 169.851L164.952 174.088H187.55L189.4 170.236L188.938 174.088H191.482V165.108C191.482 154.75 183.919 146.353 174.59 146.353Z" fill="#2F2E41"/>
<path d="M162.743 196.625H153.195L153.104 188.835C153.1 188.753 153.1 188.676 153.1 188.594L155.011 186.441L155.046 186.403L162.343 191.026L162.743 196.625Z" fill="#D0CDE1"/>
<path d="M173.291 172.49C179.062 172.49 183.741 167.809 183.741 162.035C183.741 156.26 179.062 151.58 173.291 151.58C167.519 151.58 162.84 156.26 162.84 162.035C162.84 167.809 167.519 172.49 173.291 172.49Z" fill="#FBBEBE"/>
<path d="M167.299 168.308C167.299 168.308 170.365 184.199 168.971 185.872C167.578 187.545 183.741 182.805 183.741 182.805C183.741 182.805 178.446 171.932 181.233 165.798L167.299 168.308Z" fill="#FBBEBE"/>
<path d="M195.651 179.055H195.647C195.401 178.534 194.975 178.119 194.449 177.886C192.4 177.022 190.635 176.361 189.183 175.858C186.615 174.976 183.814 175.063 181.306 176.103C181.061 176.202 180.82 176.309 180.584 176.429C180.584 176.429 170.366 178.376 169.151 178.131C169.06 178.114 168.966 178.101 168.876 178.092C168.692 178.066 168.507 178.05 168.322 178.045C165.944 177.935 163.586 178.52 161.535 179.729C158.181 181.676 153.207 185.126 153.104 188.487L153.01 188.594L153.104 196.625H197.953C198.044 188.929 198.095 183.146 198.095 182.755C198.095 181.539 195.651 179.055 195.651 179.055Z" fill="#4D3595"/>
<path d="M178.763 150.843C178.056 149.894 177.141 149.12 176.087 148.582C175.034 148.045 173.871 147.757 172.688 147.741H172.4C166.843 147.741 162.338 152.772 162.338 158.977L164.2 158.977L164.501 156.687L164.942 158.977H175.985L176.91 157.04L176.679 158.977H178.851C179.865 164.014 178.408 169.051 174.481 174.088H178.182L180.033 170.213L179.57 174.088H186.625L188.012 165.176C188.012 158.503 184.136 152.844 178.763 150.843Z" fill="#2F2E41"/>
<path d="M180.791 151.781C183.828 151.781 186.289 149.318 186.289 146.28C186.289 143.242 183.828 140.78 180.791 140.78C177.755 140.78 175.293 143.242 175.293 146.28C175.293 149.318 177.755 151.781 180.791 151.781Z" fill="#2F2E41"/>
</g>
<defs>
<clipPath id="clip0_179_5434">
<rect width="351" height="225" fill="white"/>
</clipPath>
</defs>
</svg>
