<svg width="362" height="263" viewBox="0 0 362 263" fill="none" xmlns="http://www.w3.org/2000/svg">
<g clip-path="url(#clip0_178_5205)">
<path d="M167.744 195.49H1.92727C1.41633 195.49 0.92651 195.287 0.565222 194.925C0.203934 194.564 0.000666473 194.074 0 193.563V39.5784C0.000670304 39.0675 0.203942 38.5777 0.565229 38.2164C0.926517 37.8551 1.41634 37.6519 1.92727 37.6512H167.744C168.255 37.6519 168.744 37.8551 169.106 38.2164C169.467 38.5777 169.67 39.0675 169.671 39.5784V193.563C169.67 194.074 169.467 194.564 169.106 194.925C168.745 195.286 168.255 195.49 167.744 195.49Z" fill="#F1F1F1"/>
<path d="M193.882 218.517H28.0659C27.555 218.517 27.0652 218.314 26.7039 217.952C26.3426 217.591 26.1393 217.101 26.1387 216.59V62.6054C26.1393 62.0945 26.3426 61.6046 26.7039 61.2434C27.0652 60.8821 27.555 60.6788 28.0659 60.6782H193.882C194.393 60.6788 194.883 60.8821 195.244 61.2434C195.606 61.6046 195.809 62.0945 195.81 62.6054V216.59C195.809 217.101 195.606 217.591 195.244 217.952C194.883 218.313 194.393 218.517 193.882 218.517Z" fill="white"/>
<path d="M193.882 218.517H28.0659C27.555 218.517 27.0652 218.314 26.7039 217.952C26.3426 217.591 26.1393 217.101 26.1387 216.59V62.6054C26.1393 62.0945 26.3426 61.6046 26.7039 61.2434C27.0652 60.8821 27.555 60.6788 28.0659 60.6782H193.882C194.393 60.6788 194.883 60.8821 195.244 61.2434C195.606 61.6046 195.809 62.0945 195.81 62.6054V216.59C195.809 217.101 195.606 217.591 195.244 217.952C194.883 218.313 194.393 218.517 193.882 218.517ZM28.0659 61.4475C27.7597 61.4482 27.4662 61.5701 27.2497 61.7867C27.0332 62.0032 26.9113 62.2966 26.9106 62.6029V216.59C26.9113 216.896 27.0332 217.19 27.2497 217.406C27.4662 217.623 27.7597 217.745 28.0659 217.745H193.882C194.189 217.745 194.482 217.623 194.699 217.406C194.915 217.19 195.037 216.896 195.038 216.59V62.6054C195.037 62.2992 194.915 62.0057 194.699 61.7892C194.482 61.5727 194.189 61.4507 193.882 61.4501L28.0659 61.4475Z" fill="#E6E6E6"/>
<path d="M163.013 129.709H58.9351C58.4241 129.708 57.9342 129.505 57.5729 129.143C57.2116 128.782 57.0084 128.292 57.0078 127.781V82.1077C57.0084 81.5967 57.2116 81.1069 57.5729 80.7456C57.9342 80.3843 58.4241 80.1811 58.9351 80.1805H163.013C163.524 80.1811 164.014 80.3843 164.375 80.7456C164.736 81.1069 164.94 81.5967 164.94 82.1077V127.781C164.94 128.292 164.736 128.782 164.375 129.143C164.014 129.505 163.524 129.708 163.013 129.709Z" fill="#4D3595"/>
<path d="M75.0759 99.7106C74.7293 99.7113 74.3972 99.8494 74.1523 100.095C73.9075 100.34 73.77 100.672 73.77 101.019C73.77 101.366 73.9075 101.698 74.1523 101.943C74.3972 102.189 74.7293 102.327 75.0759 102.327H146.872C147.219 102.327 147.551 102.189 147.796 101.943C148.04 101.698 148.178 101.366 148.178 101.019C148.178 100.672 148.04 100.34 147.796 100.095C147.551 99.8494 147.219 99.7113 146.872 99.7106H75.0759Z" fill="white"/>
<path d="M75.0759 107.562C74.7293 107.562 74.3972 107.7 74.1523 107.946C73.9075 108.191 73.77 108.523 73.77 108.87C73.77 109.217 73.9075 109.549 74.1523 109.794C74.3972 110.04 74.7293 110.178 75.0759 110.178H111.729C112.076 110.178 112.408 110.04 112.653 109.794C112.898 109.549 113.035 109.217 113.035 108.87C113.035 108.523 112.898 108.191 112.653 107.946C112.408 107.7 112.076 107.562 111.729 107.562H75.0759Z" fill="white"/>
<path d="M43.6648 146.543C43.3182 146.544 42.9861 146.682 42.7412 146.927C42.4964 147.173 42.3589 147.505 42.3589 147.852C42.3589 148.198 42.4964 148.531 42.7412 148.776C42.9861 149.021 43.3182 149.159 43.6648 149.16H178.283C178.629 149.159 178.962 149.021 179.206 148.776C179.451 148.531 179.589 148.198 179.589 147.852C179.589 147.505 179.451 147.173 179.206 146.927C178.962 146.682 178.629 146.544 178.283 146.543H43.6648Z" fill="#E6E6E6"/>
<path d="M43.6648 154.394C43.3182 154.395 42.9861 154.533 42.7412 154.778C42.4964 155.024 42.3589 155.356 42.3589 155.703C42.3589 156.049 42.4964 156.382 42.7412 156.627C42.9861 156.872 43.3182 157.01 43.6648 157.011H143.14C143.487 157.01 143.819 156.872 144.064 156.627C144.309 156.382 144.446 156.049 144.446 155.703C144.446 155.356 144.309 155.024 144.064 154.778C143.819 154.533 143.487 154.395 143.14 154.394H43.6648Z" fill="#E6E6E6"/>
<path d="M43.6648 162.068C43.3182 162.068 42.9861 162.207 42.7412 162.452C42.4964 162.697 42.3589 163.03 42.3589 163.376C42.3589 163.723 42.4964 164.055 42.7412 164.3C42.9861 164.546 43.3182 164.684 43.6648 164.685H178.283C178.629 164.684 178.962 164.546 179.206 164.3C179.451 164.055 179.589 163.723 179.589 163.376C179.589 163.03 179.451 162.697 179.206 162.452C178.962 162.207 178.629 162.068 178.283 162.068H43.6648Z" fill="#E6E6E6"/>
<path d="M43.6648 169.919C43.3182 169.92 42.9861 170.058 42.7412 170.303C42.4964 170.548 42.3589 170.881 42.3589 171.227C42.3589 171.574 42.4964 171.906 42.7412 172.152C42.9861 172.397 43.3182 172.535 43.6648 172.536H143.14C143.487 172.535 143.819 172.397 144.064 172.152C144.309 171.906 144.446 171.574 144.446 171.227C144.446 170.881 144.309 170.548 144.064 170.303C143.819 170.058 143.487 169.92 143.14 169.919H43.6648Z" fill="#E6E6E6"/>
<path d="M177.451 200.465H138C137.489 200.465 136.999 200.262 136.638 199.9C136.277 199.539 136.073 199.049 136.073 198.538V192.218C136.073 191.707 136.277 191.217 136.638 190.856C136.999 190.494 137.489 190.291 138 190.29H177.451C177.962 190.291 178.452 190.494 178.813 190.856C179.174 191.217 179.377 191.707 179.378 192.218V198.538C179.377 199.049 179.174 199.539 178.813 199.9C178.452 200.262 177.962 200.465 177.451 200.465Z" fill="#4D3595"/>
<path d="M262.246 62.8925L195.592 96.9863L196.032 97.8469L262.686 63.7531L262.246 62.8925Z" fill="#E5E5E5"/>
<path d="M196.029 186.42L195.589 187.281L262.248 221.365L262.688 220.504L196.029 186.42Z" fill="#E5E5E5"/>
<path d="M362 50.7629C361.998 60.1178 359.413 69.2904 354.529 77.2699C349.646 85.2493 342.655 91.7257 334.326 95.9853C333.896 96.2077 333.461 96.4253 333.026 96.6283C332.769 96.754 332.513 96.87 332.257 96.9861C331.628 97.2713 330.99 97.5469 330.347 97.8031C328.06 98.7384 325.705 99.4996 323.303 100.08C322.965 100.167 322.617 100.245 322.273 100.322C321.408 100.515 320.536 100.683 319.658 100.825C314.864 101.627 309.98 101.741 305.154 101.163C304.153 101.047 303.16 100.899 302.175 100.718C301.707 100.631 301.238 100.539 300.773 100.443C300.711 100.428 300.648 100.414 300.585 100.404C298.919 100.053 297.273 99.6145 295.654 99.0891C294.783 98.8087 293.918 98.5089 293.072 98.1802C292.632 98.011 292.197 97.837 291.766 97.6581C291.554 97.5711 291.341 97.4792 291.133 97.3874C282.719 93.7602 275.443 87.9237 270.078 80.4966C264.712 73.0696 261.457 64.329 260.656 55.2017C259.856 46.0744 261.541 36.9006 265.532 28.6532C269.523 20.4058 275.672 13.3922 283.327 8.35623C290.981 3.32024 299.856 0.449574 309.01 0.0486386C318.163 -0.352297 327.255 1.73146 335.321 6.07891C343.386 10.4264 350.125 16.8755 354.822 24.7423C359.519 32.6092 361.999 41.6005 362 50.7629Z" fill="#F1F1F1"/>
<path d="M362 212.237C361.988 220.417 360.006 228.473 356.222 235.725C352.437 242.976 346.962 249.209 340.258 253.897C340.133 253.984 340.007 254.071 339.881 254.153C339.146 254.66 338.397 255.149 337.628 255.608C337.14 255.908 336.642 256.198 336.144 256.483C335.544 256.821 334.94 257.145 334.326 257.46C334.186 257.532 334.046 257.605 333.901 257.672C333.388 257.933 332.871 258.185 332.344 258.422C332.315 258.436 332.286 258.446 332.257 258.46C332.083 258.538 331.904 258.62 331.72 258.697C330.584 259.2 329.424 259.664 328.239 260.08C328.157 260.114 328.07 260.143 327.983 260.172C325.271 261.125 322.48 261.836 319.643 262.299C319.106 262.396 318.565 262.473 318.024 262.546C317.936 262.56 317.845 262.575 317.758 262.584C317.018 262.681 316.273 262.758 315.524 262.821C315.437 262.831 315.35 262.836 315.263 262.84C314.702 262.889 314.137 262.923 313.566 262.947C312.792 262.981 312.019 263 311.236 263C310.138 263 309.047 262.966 307.963 262.899C307.02 262.836 306.082 262.753 305.154 262.637C304.588 262.57 304.022 262.492 303.466 262.405C302.852 262.314 302.238 262.207 301.634 262.091C301.334 262.033 301.035 261.97 300.735 261.907C300.686 261.898 300.633 261.888 300.585 261.878C300.101 261.777 299.623 261.671 299.149 261.55C297.27 261.096 295.42 260.531 293.608 259.858C292.989 259.626 292.375 259.384 291.766 259.132C291.578 259.055 291.389 258.973 291.206 258.891C290.872 258.75 290.543 258.601 290.215 258.451C289.968 258.34 289.721 258.224 289.475 258.107C288.953 257.866 288.44 257.61 287.928 257.344C287.517 257.136 287.106 256.913 286.704 256.691C286.695 256.686 286.69 256.681 286.68 256.676C278.845 252.347 272.293 246.023 267.69 238.346C263.087 230.668 260.596 221.91 260.469 212.959C260.342 204.008 262.585 195.183 266.969 187.378C271.353 179.573 277.723 173.067 285.433 168.518C293.143 163.969 301.919 161.539 310.871 161.476C319.823 161.412 328.632 163.716 336.406 168.155C344.18 172.594 350.642 179.01 355.137 186.751C359.631 194.493 361.999 203.285 362 212.237Z" fill="#F1F1F1"/>
<path d="M310.926 41.8141C307.276 41.8184 303.776 43.2705 301.195 45.8517C298.614 48.4329 297.162 51.9325 297.157 55.5829V65.8564C297.158 66.3467 297.354 66.8165 297.701 67.1628C298.048 67.509 298.519 67.7034 299.009 67.7032H322.844C323.334 67.7034 323.805 67.5091 324.152 67.1628C324.499 66.8166 324.695 66.3467 324.696 65.8564V55.5829C324.691 51.9327 323.239 48.4333 320.657 45.8521C318.076 43.271 314.577 41.8188 310.926 41.8141Z" fill="#2F2E41"/>
<path d="M303.892 85.0399L302.572 79.0934C302.387 78.2483 301.954 77.4775 301.33 76.8791C300.774 76.3962 300.124 76.0355 299.42 75.8204C299.338 75.801 299.255 75.7817 299.169 75.7671C299.132 75.7568 299.095 75.7488 299.057 75.743C298.465 75.64 297.858 75.6606 297.274 75.8036C296.69 75.9467 296.142 76.209 295.664 76.574C295.186 76.9391 294.789 77.399 294.498 77.925C294.207 78.4509 294.027 79.0314 293.971 79.63L292.85 86.6449L291.133 97.3873C291.341 97.4792 291.554 97.571 291.767 97.6581C292.197 97.8369 292.632 98.011 293.072 98.1802C293.918 98.5089 294.783 98.8087 295.654 99.0891C297.273 99.6145 298.919 100.053 300.585 100.404C300.648 100.414 300.711 100.428 300.774 100.443C301.238 100.539 301.707 100.631 302.176 100.718L304.521 87.8729L303.892 85.0399Z" fill="#2F2E41"/>
<path d="M307.53 67.5492C313.105 67.5492 317.624 63.03 317.624 57.4553C317.624 51.8806 313.105 47.3614 307.53 47.3614C301.955 47.3614 297.436 51.8806 297.436 57.4553C297.436 63.03 301.955 67.5492 307.53 67.5492Z" fill="#FFB7B7"/>
<path d="M318.44 91.2378L316.283 74.2395L315.829 70.6377H315.824L315.621 70.6329C314.934 70.6087 314.267 70.6039 313.61 70.6281C309.575 70.6452 305.617 71.7401 302.147 73.7995C301.238 74.3536 300.372 74.9741 299.555 75.656L299.517 75.6947L299.42 75.8204L295.992 80.2295L295.987 80.3165L295.654 99.0891C297.273 99.6145 298.919 100.053 300.585 100.404C300.648 100.414 300.711 100.428 300.774 100.443C301.238 100.539 301.707 100.631 302.176 100.718C303.162 100.897 304.155 101.046 305.154 101.163C309.98 101.741 314.864 101.628 319.658 100.825L318.44 91.2378Z" fill="#4D3595"/>
<path d="M321.968 74.3507C320.381 72.4778 318.225 71.1741 315.829 70.6378H315.824C315.185 70.4939 314.534 70.4082 313.88 70.3815L313.711 70.3767L313.61 70.6281L305.487 90.2081L304.177 84.9771L302.146 73.7996L302.132 73.7174L301.827 73.8963C300.886 74.4383 299.996 75.0645 299.168 75.7672C295.874 78.5489 293.675 82.4112 292.965 86.6643C292.758 87.9246 292.682 89.2029 292.738 90.4788L293.072 98.1803C293.918 98.509 294.783 98.8088 295.653 99.0891C297.273 99.6146 298.919 100.054 300.585 100.404C300.648 100.414 300.711 100.428 300.773 100.443C301.237 100.539 301.706 100.631 302.175 100.718C303.162 100.897 304.154 101.046 305.154 101.163C309.98 101.741 314.864 101.628 319.658 100.825C320.537 100.685 321.409 100.517 322.273 100.322C322.617 100.245 322.964 100.167 323.303 100.08L322.573 97.9288L324.507 82.9949C324.705 81.4568 324.581 79.8945 324.144 78.4066C323.707 76.9187 322.967 75.5376 321.968 74.3507Z" fill="#2F2E41"/>
<path d="M324.367 74.7665C324.021 73.7023 323.279 72.8124 322.293 72.282C321.308 71.7516 320.156 71.6215 319.078 71.9189C318.903 71.9636 318.732 72.0201 318.565 72.0881C317.763 72.415 317.077 72.9738 316.595 73.693C316.113 74.4122 315.856 75.259 315.858 76.125L315.877 85.1608L318.44 91.2378L322.274 100.322C322.617 100.245 322.965 100.167 323.303 100.08C325.705 99.4996 328.06 98.7384 330.347 97.8031C330.99 97.5469 331.628 97.2713 332.257 96.9861C332.513 96.8701 332.77 96.754 333.026 96.6283L324.367 74.7665Z" fill="#2F2E41"/>
<path d="M306.85 45.5126H304.791C301.903 45.5136 299.133 46.6616 297.092 48.7042C295.05 50.7468 293.903 53.5168 293.903 56.4048V56.6079H308.48L308.63 54.5145L309.374 56.6079H311.618L311.917 52.4598L313.397 56.6079H317.738V56.4048C317.736 53.5177 316.588 50.7494 314.547 48.7075C312.505 46.6655 309.738 45.5165 306.85 45.5126Z" fill="#2F2E41"/>
<path d="M302.427 231.034C300.726 230.912 299.019 231.131 297.404 231.679C295.79 232.226 294.301 233.091 293.026 234.222C291.75 235.353 290.714 236.727 289.977 238.265C289.24 239.802 288.818 241.471 288.735 243.173L287.928 257.344C288.44 257.609 288.953 257.866 289.475 258.107C289.721 258.223 289.968 258.339 290.215 258.451C290.543 258.601 290.872 258.75 291.206 258.891C291.389 258.973 291.578 259.055 291.766 259.132C292.376 259.384 292.99 259.625 293.608 259.858C295.42 260.531 297.27 261.096 299.149 261.55C299.623 261.67 300.101 261.777 300.585 261.878C300.633 261.888 300.686 261.898 300.735 261.907C301.035 261.97 301.334 262.033 301.634 262.091L302.659 231.048L302.427 231.034Z" fill="#2F2E41"/>
<path d="M315.524 262.821C316.273 262.758 317.018 262.681 317.758 262.584C317.845 262.575 317.937 262.56 318.024 262.546C318.565 262.473 319.107 262.396 319.643 262.299C319.687 260.989 319.672 260.046 319.672 259.93L322.075 234.892L317.066 231.972L316.09 231.401L300.947 230.913L300.822 231.019L293.55 237.324L291.206 258.891C291.389 258.973 291.578 259.055 291.766 259.132C292.376 259.384 292.99 259.625 293.608 259.858C295.42 260.531 297.27 261.096 299.149 261.55C299.623 261.67 300.101 261.777 300.585 261.878C300.633 261.888 300.686 261.898 300.735 261.907C301.034 261.97 301.334 262.033 301.634 262.091C302.238 262.207 302.852 262.313 303.466 262.405C304.022 262.492 304.588 262.57 305.154 262.637C306.082 262.753 307.02 262.836 307.963 262.898C309.046 262.966 310.137 263 311.236 263C312.019 263 312.792 262.981 313.566 262.947C314.136 262.923 314.702 262.889 315.263 262.84L315.524 262.821Z" fill="#2F2E41"/>
<path d="M325.653 237.048L317.076 231.807L317.067 231.972L315.524 262.821C316.274 262.758 317.018 262.681 317.758 262.584C317.845 262.575 317.937 262.56 318.024 262.546C318.565 262.473 319.107 262.396 319.643 262.299C322.48 261.836 325.271 261.125 327.983 260.172C328.07 260.143 328.157 260.114 328.24 260.08L328.849 242.782C328.891 241.625 328.615 240.479 328.052 239.469C327.489 238.458 326.659 237.62 325.653 237.048Z" fill="#2F2E41"/>
<path d="M306.828 227.574C312.704 227.574 317.468 222.811 317.468 216.934C317.468 211.058 312.704 206.294 306.828 206.294C300.951 206.294 296.188 211.058 296.188 216.934C296.188 222.811 300.951 227.574 306.828 227.574Z" fill="#9F616A"/>
<path d="M302.98 201.224C313.696 198.133 316.738 207.015 316.738 207.015C321.903 210.442 318.669 214.738 318.669 214.738C319.973 215.027 317.367 222.654 316.498 222.461C316.034 222.358 314.842 223.781 313.831 225.131C313.484 225.131 313.138 225.164 312.798 225.23L314.76 217.972C314.76 217.972 308.146 216.959 306.119 213.774C304.179 210.726 297.793 209.763 295.976 211.799C295.868 211.214 295.648 210.655 295.327 210.154C295.079 209.773 294.755 209.447 294.375 209.198C295.981 202.37 302.98 201.224 302.98 201.224Z" fill="#2F2E41"/>
<path opacity="0.2" d="M315.263 262.84C314.702 262.889 314.136 262.923 313.566 262.947L315.055 254.767V255.332L315.263 262.84Z" fill="black"/>
</g>
<defs>
<clipPath id="clip0_178_5205">
<rect width="362" height="263" fill="white"/>
</clipPath>
</defs>
</svg>
