<svg width="251" height="238" viewBox="0 0 251 238" fill="none" xmlns="http://www.w3.org/2000/svg">
<g clip-path="url(#clip0_177_5129)">
<path d="M90.7038 45.3765C90.7093 52.691 88.9453 59.8982 85.5623 66.3825C82.1793 72.8667 77.2779 78.4353 71.2767 82.6126C69.5864 83.7962 67.8163 84.8615 65.979 85.8007C65.3693 86.1136 64.7553 86.4109 64.1299 86.6926C63.5668 86.9508 63 87.1933 62.4252 87.4241C55.2967 90.312 47.5532 91.3455 39.9174 90.4283C38.5959 90.2719 37.2914 90.0567 36.0037 89.7829C35.9491 89.7712 35.8903 89.7594 35.8357 89.7477C33.1391 89.1771 30.5017 88.356 27.9576 87.295C20.3732 84.145 13.7857 78.9938 8.89822 72.3911C4.0107 65.7885 1.00645 57.9821 0.205997 49.8049C-0.594454 41.6276 0.838936 33.3864 4.35323 25.9604C7.86753 18.5345 13.3309 12.2024 20.1603 7.63988C26.9898 3.07736 34.9291 0.455545 43.1313 0.0541865C51.3334 -0.347172 59.4906 1.48698 66.7324 5.36095C73.9743 9.23491 80.0291 15.0033 84.2508 22.0508C88.4726 29.0982 90.7029 37.1601 90.7038 45.3765Z" fill="#F1F1F1"/>
<path d="M53.7029 36.9075C53.6638 36.8606 53.6208 36.8175 53.5779 36.7745C51.1547 34.3266 47.8642 32.9338 44.4209 32.8986C40.9776 32.8635 37.6594 34.1888 35.1868 36.5868C35.1595 36.6102 35.1361 36.6337 35.1126 36.6572C35.0813 36.6846 35.054 36.7119 35.0265 36.7393C33.8088 37.9546 32.8429 39.3984 32.1841 40.988C31.5253 42.5775 31.1865 44.2816 31.1873 46.0024V54.2171C31.188 54.6837 31.3735 55.1311 31.7033 55.461C32.0331 55.791 32.4802 55.9767 32.9466 55.9774H55.6226C56.089 55.9767 56.5361 55.791 56.8659 55.461C57.1957 55.1311 57.3813 54.6837 57.382 54.2171V46.0024C57.3852 42.6073 56.0654 39.3446 53.7029 36.9075Z" fill="#2F2E41"/>
<path d="M44.8103 55.896C50.1136 55.896 54.4128 51.5945 54.4128 46.2883C54.4128 40.9821 50.1136 36.6806 44.8103 36.6806C39.507 36.6806 35.2078 40.9821 35.2078 46.2883C35.2078 51.5945 39.507 55.896 44.8103 55.896Z" fill="#FFB7B7"/>
<path d="M54.9034 45.4704L53.7696 37.5451C53.7346 37.3018 53.6106 37.0802 53.4216 36.9232C53.3579 36.872 53.2883 36.8287 53.2143 36.7941C47.4084 34.0754 41.5206 34.0754 35.7147 36.7863C35.6372 36.8221 35.5649 36.8681 35.4996 36.9232C35.4763 36.9427 35.4528 36.9662 35.4293 36.9897C35.2742 37.1501 35.1777 37.3582 35.1556 37.5803L34.3971 45.5173C34.3844 45.653 34.4 45.7899 34.4431 45.9193C34.4862 46.0486 34.5558 46.1675 34.6474 46.2684C34.7951 46.431 34.9936 46.5386 35.2104 46.5735C35.2631 46.5847 35.3169 46.59 35.3707 46.5891H37.2943C37.4802 46.5885 37.6622 46.5353 37.8192 46.4356C37.9763 46.336 38.1019 46.1939 38.1818 46.0259L39.0145 44.2421C39.0677 44.1265 39.1573 44.0314 39.2695 43.9714C39.3818 43.9114 39.5105 43.8897 39.6362 43.9096C39.7619 43.9295 39.8776 43.99 39.9658 44.0818C40.054 44.1736 40.1098 44.2917 40.1247 44.4181L40.2889 45.7325C40.3194 45.9686 40.4345 46.1856 40.6129 46.3432C40.7913 46.5007 41.0208 46.5882 41.2587 46.5891H53.9376C54.1036 46.5899 54.2668 46.5468 54.4107 46.464C54.5108 46.4094 54.6008 46.338 54.6766 46.2528C54.7682 46.1462 54.8359 46.0212 54.875 45.8862C54.9142 45.7513 54.9238 45.6094 54.9034 45.4704Z" fill="#2F2E41"/>
<path d="M68.5559 73.4982L71.277 82.6126C69.5867 83.7962 67.8165 84.8615 65.9793 85.8007C65.3696 86.1136 64.7556 86.4109 64.1302 86.6926L61.3112 74.6013L60.2166 69.9111L67.2539 69.1287L68.5559 73.4982Z" fill="#FFB7B7"/>
<path d="M36.1721 71.9844L35.9374 84.2986L35.8359 89.7477C33.1393 89.1771 30.5018 88.356 27.9578 87.295L28.8922 75.6301L29.1269 72.6885L36.1721 71.9844Z" fill="#FFB7B7"/>
<path d="M68.5559 73.4982L61.4873 74.5583L61.5733 75.7201L62.4255 87.4241C55.2971 90.3119 47.5535 91.3455 39.9177 90.4283C38.5963 90.2719 37.2917 90.0567 36.004 89.7829C36.5827 87.3498 37.0832 85.1592 36.4654 84.7289C36.2793 84.5985 36.1029 84.4546 35.9376 84.2986C33.0561 81.5486 34.1196 75.3406 34.1196 75.3406L28.8924 75.6301L27.0823 75.7318C27.0823 75.7318 27.8642 63.2141 31.3829 63.2141H35.6835L56.4047 61.2583C56.4047 61.2583 62.2692 59.3024 63.8331 62.0406C64.6541 63.4762 66.1162 66.5196 67.3245 69.0935C68.4191 71.4328 69.3066 73.3847 69.3066 73.3847L68.5559 73.4982Z" fill="#2F2E41"/>
<path d="M250.997 45.8763C250.924 53.0415 249.154 60.0871 245.831 66.435C242.509 72.7828 237.73 78.252 231.886 82.3935C231.784 82.464 231.678 82.5383 231.573 82.6126C231.463 82.6908 231.35 82.7691 231.237 82.8434C230.58 83.2972 229.91 83.7314 229.227 84.146C228.265 84.7328 227.281 85.2844 226.275 85.8007C226.244 85.8164 226.209 85.832 226.177 85.8476C225.599 86.1449 225.015 86.4266 224.426 86.6926C224.406 86.7004 224.391 86.7082 224.371 86.7161C224.234 86.7786 224.09 86.8451 223.949 86.9038C222.858 87.3889 221.744 87.8309 220.61 88.2221C219.644 88.5624 218.664 88.8675 217.67 89.1375C215.637 89.6987 213.566 90.1144 211.473 90.3814C209.689 90.611 207.893 90.7338 206.094 90.7491C205.945 90.753 205.796 90.753 205.648 90.753C204.667 90.753 203.689 90.7217 202.724 90.6591C201.879 90.6044 201.042 90.5301 200.214 90.4283C198.935 90.2758 197.672 90.0724 196.429 89.8064C196.374 89.7986 196.32 89.7868 196.265 89.7751C196.222 89.7673 196.175 89.7555 196.132 89.7477C194.881 89.4856 193.649 89.1648 192.441 88.7971C191.303 88.4529 190.187 88.0643 189.09 87.6314C188.809 87.5219 188.532 87.4124 188.254 87.295C187.562 87.0055 186.878 86.7043 186.205 86.3797C186.01 86.2897 185.818 86.1958 185.627 86.1019C184.978 85.7851 184.336 85.4526 183.711 85.1005C182.956 84.682 182.215 84.2425 181.486 83.7822C180.568 83.2033 179.668 82.5931 178.796 81.9476C171.05 76.2534 165.313 68.244 162.411 59.0752C159.51 49.9065 159.595 40.0526 162.654 30.9354C165.714 21.8182 171.589 13.9093 179.432 8.3499C187.276 2.79051 196.682 -0.131857 206.293 0.0045029C231.161 0.350127 251.266 20.9934 250.997 45.8763Z" fill="#F1F1F1"/>
<path d="M196.132 89.7477C194.881 89.4856 193.649 89.1648 192.441 88.7971L196.589 63.0616L200.886 62.9286L208.678 62.6822L212.674 62.557C212.674 62.557 215.508 75.0199 217.67 89.1375C215.637 89.6987 213.566 90.1144 211.473 90.3814C209.689 90.611 207.893 90.7338 206.094 90.7491C205.945 90.753 205.797 90.753 205.648 90.753C204.667 90.753 203.689 90.7217 202.724 90.6591C201.879 90.6044 201.043 90.5301 200.214 90.4284C198.935 90.2758 197.672 90.0724 196.429 89.8064C196.375 89.7986 196.32 89.7868 196.265 89.7751C196.222 89.7673 196.175 89.7555 196.132 89.7477Z" fill="#CBCBCB"/>
<path d="M196.429 89.8063C196.374 89.7985 196.32 89.7868 196.265 89.7751C196.222 89.7672 196.175 89.7555 196.132 89.7477C194.881 89.4856 193.649 89.1648 192.441 88.7971C191.304 88.4529 190.187 88.0643 189.091 87.6314C188.809 87.5219 188.532 87.4123 188.254 87.295C187.562 87.0055 186.878 86.7043 186.205 86.3796C186.01 86.2897 185.818 86.1958 185.627 86.1019L185.283 66.8325L195.839 62.3066C195.839 62.3066 195.874 62.5883 200.886 62.9286C201.84 66.0424 196.429 89.8063 196.429 89.8063Z" fill="#2F2E41"/>
<path d="M227.98 65.9211L225.99 76.3851L226.178 85.8476C225.599 86.1449 225.015 86.4266 224.426 86.6926C224.407 86.7004 224.391 86.7082 224.372 86.7161C224.235 86.7786 224.09 86.8452 223.949 86.9038C222.858 87.3889 221.744 87.8309 220.61 88.2221C219.645 88.5624 218.665 88.8676 217.67 89.1375C215.637 89.6987 213.566 90.1144 211.474 90.3814C209.689 90.611 207.893 90.7338 206.094 90.7491L205.887 73.9794C205.449 68.5733 206.899 64.998 208.678 62.6822C218.159 61.4148 217.948 61.3013 217.948 61.3013L228 65.8272L227.98 65.9211Z" fill="#2F2E41"/>
<path d="M189.806 68.3425L189.09 87.6315C188.809 87.5219 188.532 87.4124 188.254 87.295C187.562 87.0056 186.878 86.7044 186.205 86.3797C186.01 86.2897 185.818 86.1958 185.627 86.1019C184.978 85.7851 184.336 85.4526 183.711 85.1005C182.956 84.682 182.215 84.2425 181.486 83.7823L185.283 66.8326L189.806 68.3425Z" fill="#2F2E41"/>
<path d="M231.886 82.3936C231.784 82.464 231.679 82.5383 231.573 82.6126C231.464 82.6909 231.35 82.7691 231.237 82.8434C230.58 83.2972 229.91 83.7314 229.227 84.1461C228.266 84.7328 227.282 85.2844 226.275 85.8007C226.244 85.8164 226.209 85.832 226.178 85.8477C225.582 86.154 224.98 86.4436 224.373 86.7167L224.372 86.7161L223.656 67.3606L227.98 65.9211L228.179 65.8546L231.886 82.3936Z" fill="#2F2E41"/>
<path d="M216.439 48.009C218.176 42.0793 214.793 35.8666 208.882 34.1325C202.97 32.3985 196.77 35.7998 195.032 41.7296C193.295 47.6593 196.678 53.8721 202.589 55.6061C208.501 57.3401 214.701 53.9388 216.439 48.009Z" fill="#9F616A"/>
<path d="M194.502 47.6746V43.3203C194.502 43.3203 190.993 39.1847 194.853 38.1429C194.853 38.1429 195.906 27.7252 205.031 32.5868C205.031 32.5868 217.666 30.5032 216.262 37.7956C216.262 37.7956 219.42 35.8918 218.367 40.7534L216.331 48.5846C216.331 48.5846 217.315 43.4115 214.156 42.717L212.401 41.6753C212.401 41.6753 207.488 46.5369 200.118 40.6335C200.118 40.6335 196.959 39.8792 197.31 43.0045C197.661 46.1298 194.502 47.6746 194.502 47.6746Z" fill="#2F2E41"/>
<path d="M170.852 182.288C170.858 189.603 169.094 196.81 165.711 203.294C162.328 209.779 157.426 215.347 151.425 219.524C151.316 219.603 151.202 219.681 151.089 219.755C150.432 220.209 149.762 220.643 149.079 221.058C148.118 221.645 147.134 222.196 146.127 222.713C145.518 223.026 144.904 223.323 144.278 223.604C144.122 223.675 143.962 223.749 143.801 223.816C142.71 224.301 141.596 224.743 140.462 225.134C137.501 226.173 134.438 226.897 131.325 227.293C129.394 227.542 127.448 227.666 125.5 227.665C124.519 227.665 123.541 227.634 122.576 227.571C121.731 227.516 120.895 227.442 120.066 227.34C118.732 227.18 117.415 226.965 116.117 226.687C116.074 226.679 116.027 226.667 115.984 226.66C113.288 226.089 110.65 225.268 108.106 224.207C107.414 223.917 106.73 223.616 106.057 223.291C105.209 222.892 104.378 222.466 103.563 222.012C96.5628 218.143 90.7097 212.49 86.5972 205.627C82.4847 198.764 80.2591 190.935 80.1459 182.934C80.0327 174.933 82.0361 167.044 85.9529 160.067C89.8697 153.091 95.5606 147.274 102.449 143.208C109.337 139.142 117.177 136.97 125.174 136.913C133.172 136.856 141.042 138.916 147.987 142.884C154.932 146.852 160.705 152.587 164.721 159.507C168.736 166.427 170.852 174.286 170.852 182.288Z" fill="#F1F1F1"/>
<path d="M124.254 193.472C129.847 193.472 134.381 188.935 134.381 183.339C134.381 177.743 129.847 173.206 124.254 173.206C118.661 173.206 114.127 177.743 114.127 183.339C114.127 188.935 118.661 193.472 124.254 193.472Z" fill="#FFB8B8"/>
<path d="M120.066 227.34C118.732 227.18 117.415 226.965 116.117 226.687L117.348 198.96L117.524 198.776L120.046 196.113H128.065L131.024 198.98L131.275 199.226L137.604 205.293L140.462 225.134C137.501 226.173 134.438 226.897 131.325 227.293C129.394 227.542 127.448 227.666 125.5 227.665C124.519 227.665 123.541 227.634 122.576 227.571C121.731 227.516 120.895 227.442 120.066 227.34Z" fill="#CBCBCB"/>
<path d="M106.057 223.292C105.209 222.893 104.377 222.466 103.563 222.012C103.481 214.502 103.426 209.514 103.426 209.514L104.38 208.931C104.391 208.926 104.403 208.92 104.415 208.916L115.241 202.336L117.512 198.643L117.524 198.776L118.193 206.561C120.206 213.437 121.672 220.463 122.576 227.571C121.731 227.516 120.894 227.442 120.066 227.34C118.732 227.18 117.415 226.965 116.117 226.687C116.074 226.679 116.027 226.667 115.984 226.66C113.287 226.089 110.65 225.268 108.106 224.207C107.414 223.917 106.73 223.616 106.057 223.292Z" fill="#2F2E41"/>
<path d="M140.462 225.134C137.501 226.173 134.438 226.897 131.325 227.293C130.894 224.768 130.735 222.205 130.852 219.646C131.697 206.138 129.75 198.643 130.594 198.643L131.024 198.98L136.338 203.181L143.332 205.747H143.336L148.149 207.511L148.997 207.824V208.227C149.001 209.62 149.009 214.494 149.079 221.058C148.117 221.645 147.133 222.196 146.127 222.713C145.518 223.026 144.904 223.323 144.278 223.605C144.122 223.675 143.962 223.749 143.801 223.816C142.71 224.301 141.596 224.743 140.462 225.134Z" fill="#2F2E41"/>
<path d="M114.673 186.509C114.673 186.509 115.534 184.997 115.334 179.947C115.134 174.896 122.821 177.752 129.244 177.271C135.667 176.789 134.307 185.703 134.307 185.703C134.307 185.703 134.771 185.173 135.763 180.871C136.755 176.569 134.502 172.281 134.502 172.281C133.839 167.761 130.263 169.209 130.263 169.209C131.985 169.88 131.654 171.314 131.654 171.314C130.197 168.757 126.622 170.206 126.622 170.206C121.853 167.212 117.02 171.155 117.02 171.155C111.259 172.463 114.638 177.047 114.638 177.047C108.844 179.976 114.673 186.509 114.673 186.509Z" fill="#2F2E41"/>
<path d="M98.6484 218.86C98.7972 215.421 98.8636 213.203 98.7853 212.894C98.3827 211.282 103.88 209.123 104.38 208.931C104.391 208.926 104.403 208.92 104.415 208.916L105.533 209.514L106.057 223.292C105.209 222.893 104.378 222.466 103.563 222.012C101.858 221.069 100.217 220.016 98.6484 218.86Z" fill="#2F2E41"/>
<path d="M149.079 221.058C148.117 221.645 147.133 222.196 146.127 222.713C145.517 223.026 144.904 223.323 144.278 223.604C144.122 223.675 143.961 223.749 143.801 223.816L142.042 206.436L143.07 205.685C143.07 205.685 143.164 205.708 143.332 205.747H143.336C144.161 205.951 146.694 206.623 148.149 207.511C148.473 207.696 148.761 207.938 148.997 208.227C149.141 208.4 149.212 208.621 149.196 208.845C149.15 209.299 149.932 213.602 151.089 219.755C150.432 220.209 149.762 220.643 149.079 221.058Z" fill="#2F2E41"/>
<path d="M61.779 191.533H44.9612V116.097H45.7431V190.751H61.779V191.533Z" fill="#F1F1F1"/>
<path d="M206.042 191.533H189.224V190.751H205.26V115.397H206.042V191.533Z" fill="#F1F1F1"/>
<path d="M205.648 99.4988C211.356 99.4988 215.984 94.8688 215.984 89.1575C215.984 83.4462 211.356 78.8162 205.648 78.8162C199.94 78.8162 195.312 83.4462 195.312 89.1575C195.312 94.8688 199.94 99.4988 205.648 99.4988Z" fill="#4D3595"/>
<path d="M204.663 93.5229L201.57 89.5431L203.369 88.1431L204.833 90.0274L209.782 84.8013L211.436 86.3695L204.663 93.5229Z" fill="white"/>
<path d="M45.3521 100.306C51.0603 100.306 55.6878 95.6758 55.6878 89.9645C55.6878 84.2532 51.0603 79.6232 45.3521 79.6232C39.6438 79.6232 35.0164 84.2532 35.0164 89.9645C35.0164 95.6758 39.6438 100.306 45.3521 100.306Z" fill="#4D3595"/>
<path d="M44.3672 94.3299L41.2734 90.3501L43.0727 88.9501L44.5372 90.8344L49.4857 85.6083L51.1402 87.1765L44.3672 94.3299Z" fill="white"/>
<path d="M125.5 238C131.208 238 135.836 233.37 135.836 227.659C135.836 221.947 131.208 217.317 125.5 217.317C119.792 217.317 115.164 221.947 115.164 227.659C115.164 233.37 119.792 238 125.5 238Z" fill="#4D3595"/>
<path d="M124.515 232.024L121.421 228.044L123.221 226.644L124.685 228.529L129.634 223.302L131.288 224.871L124.515 232.024Z" fill="white"/>
</g>
<defs>
<clipPath id="clip0_177_5129">
<rect width="251" height="238" fill="white"/>
</clipPath>
</defs>
</svg>
