<svg width="374" height="235" viewBox="0 0 374 235" fill="none" xmlns="http://www.w3.org/2000/svg">
<g clip-path="url(#clip0_179_5488)">
<path d="M147.564 187.769H1.50405C1.10528 187.768 0.722979 187.61 0.441011 187.328C0.159044 187.046 0.000442207 186.664 0 186.265V43.9063C0.000442207 43.5076 0.159044 43.1253 0.441011 42.8434C0.722979 42.5615 1.10528 42.4029 1.50405 42.4025H147.564C147.963 42.4029 148.345 42.5615 148.627 42.8434C148.909 43.1253 149.068 43.5076 149.068 43.9063V186.265C149.068 186.664 148.909 187.046 148.627 187.328C148.345 187.61 147.963 187.768 147.564 187.769Z" fill="#F0F0F0"/>
<path d="M131.688 55.4353H17.38C16.9813 55.4359 16.5991 55.5945 16.3172 55.8764C16.0352 56.1583 15.8766 56.5404 15.876 56.9391V145.495C15.8766 145.894 16.0352 146.276 16.3172 146.558C16.5991 146.84 16.9813 146.999 17.38 146.999H131.688C132.086 146.999 132.469 146.84 132.751 146.558C133.033 146.276 133.191 145.894 133.192 145.495V56.9391C133.191 56.5404 133.033 56.1583 132.751 55.8764C132.469 55.5945 132.086 55.4359 131.688 55.4353Z" fill="white"/>
<path d="M125.17 164.376H23.8976C23.6761 164.376 23.4637 164.288 23.307 164.131C23.1504 163.975 23.0623 163.762 23.062 163.541V158.862C23.0623 158.641 23.1504 158.429 23.307 158.272C23.4637 158.115 23.6761 158.027 23.8976 158.027H125.17C125.392 158.027 125.604 158.115 125.761 158.272C125.917 158.429 126.006 158.641 126.006 158.862V163.541C126.006 163.762 125.917 163.975 125.761 164.131C125.604 164.288 125.392 164.376 125.17 164.376Z" fill="white"/>
<path d="M90.0757 175.738H23.8976C23.6761 175.738 23.4637 175.65 23.307 175.493C23.1504 175.337 23.0623 175.124 23.062 174.903V170.224C23.0623 170.003 23.1504 169.791 23.307 169.634C23.4637 169.477 23.6761 169.389 23.8976 169.389H90.0757C90.2973 169.389 90.5097 169.477 90.6663 169.634C90.823 169.791 90.9111 170.003 90.9113 170.224V174.903C90.9111 175.124 90.8229 175.337 90.6663 175.493C90.5097 175.65 90.2973 175.738 90.0757 175.738Z" fill="white"/>
<path d="M71.71 115.443C79.7367 115.443 86.2437 108.937 86.2437 100.912C86.2437 92.8861 79.7367 86.3803 71.71 86.3803C63.6832 86.3803 57.1763 92.8861 57.1763 100.912C57.1763 108.937 63.6832 115.443 71.71 115.443Z" fill="#FFB8B8"/>
<path d="M92.9738 146.999H60.7505L61.8033 123.313L62.0541 123.049L65.6703 119.229H77.1779L81.4427 123.36L81.7872 123.694L90.8682 132.396L92.9738 146.999Z" fill="#4D3595"/>
<path d="M66.2918 146.999H41.9128C41.8528 141.652 41.8193 138.451 41.8193 138.451L43.2297 137.592C43.2315 137.59 43.2338 137.589 43.2364 137.589H43.2398L58.775 128.158L62.037 122.862L62.0538 123.049L63.0131 134.214C63.0131 134.214 64.5973 139.333 66.2918 146.999Z" fill="#2F2E41"/>
<path d="M107.266 146.999H81.4427C81.8337 131.407 79.7281 122.862 80.8112 122.862L81.4427 123.36L89.0532 129.368L99.0836 133.047H99.0903L106.006 135.584L107.219 136.028V136.6C107.222 137.97 107.229 141.716 107.266 146.999Z" fill="#2F2E41"/>
<path d="M57.9603 105.458C57.9603 105.458 59.1951 103.29 58.908 96.0464C58.6209 88.8032 69.6525 92.8999 78.8705 92.2089C88.0885 91.518 86.1373 104.302 86.1373 104.302C86.1373 104.302 86.8023 103.542 88.2261 97.3719C89.6499 91.2022 86.4171 85.0538 86.4171 85.0538C85.465 78.5705 80.3338 80.6484 80.3338 80.6484C82.8049 81.6102 82.3303 83.6668 82.3303 83.6668C80.2386 80.0001 75.1074 82.0779 75.1074 82.0779C68.2638 77.7842 61.3279 83.4385 61.3279 83.4385C53.0606 85.3145 57.909 91.8881 57.909 91.8881C49.5948 96.089 57.9603 105.458 57.9603 105.458Z" fill="#2F2E41"/>
<path d="M45.1682 146.999H35.1512C35.2293 145.765 35.2315 144.528 35.1579 143.293C34.5596 140.911 42.9756 137.689 43.2296 137.592C43.2313 137.59 43.2337 137.589 43.2363 137.589H43.2397L44.844 138.451L45.1682 146.999Z" fill="#2F2E41"/>
<path d="M109.073 146.999H98.5517L97.2383 134.033L98.7121 132.957C98.7121 132.957 98.846 132.987 99.0833 133.047H99.0899C100.27 133.338 103.92 134.301 106.005 135.584C106.469 135.844 106.881 136.189 107.218 136.6C107.425 136.848 107.528 137.166 107.506 137.489C107.452 137.973 108.067 141.542 109.073 146.999Z" fill="#2F2E41"/>
<path d="M372.444 145.366H226.384C225.986 145.366 225.603 145.207 225.321 144.925C225.039 144.643 224.881 144.261 224.88 143.862V1.50379C224.881 1.10509 225.039 0.722861 225.321 0.440942C225.603 0.159023 225.986 0.000443378 226.384 0H372.444C372.843 0.00043592 373.225 0.159007 373.507 0.440928C373.789 0.722849 373.948 1.10509 373.948 1.50379V143.862C373.948 144.261 373.789 144.643 373.507 144.925C373.225 145.207 372.843 145.366 372.444 145.366Z" fill="#F0F0F0"/>
<path d="M356.569 13.0331H242.261C241.862 13.0337 241.48 13.1923 241.198 13.4742C240.916 13.7561 240.757 14.1383 240.757 14.5369V103.093C240.757 103.492 240.916 103.874 241.198 104.156C241.48 104.438 241.862 104.596 242.261 104.597H356.569C356.967 104.596 357.35 104.438 357.631 104.156C357.913 103.874 358.072 103.492 358.073 103.093V14.5369C358.072 14.1383 357.913 13.7561 357.631 13.4742C357.35 13.1923 356.967 13.0337 356.569 13.0331Z" fill="white"/>
<path d="M350.051 121.974H248.778C248.556 121.974 248.344 121.886 248.187 121.729C248.031 121.572 247.943 121.36 247.942 121.138V116.46C247.943 116.239 248.031 116.026 248.187 115.87C248.344 115.713 248.556 115.625 248.778 115.625H350.051C350.272 115.625 350.485 115.713 350.641 115.87C350.798 116.026 350.886 116.239 350.886 116.46V121.138C350.886 121.36 350.798 121.572 350.641 121.729C350.485 121.886 350.272 121.974 350.051 121.974Z" fill="white"/>
<path d="M314.956 133.336H248.778C248.556 133.336 248.344 133.248 248.187 133.091C248.031 132.934 247.943 132.722 247.942 132.5V127.822C247.943 127.6 248.031 127.388 248.187 127.232C248.344 127.075 248.556 126.987 248.778 126.987H314.956C315.178 126.987 315.39 127.075 315.547 127.232C315.703 127.388 315.791 127.6 315.792 127.822V132.5C315.791 132.722 315.703 132.934 315.547 133.091C315.39 133.248 315.178 133.336 314.956 133.336Z" fill="white"/>
<path d="M327.55 104.597C328.195 102.275 328.697 100.273 328.954 98.856C329.033 98.419 329.041 97.9721 328.977 97.5326C328.015 90.6854 310.628 84.8975 308.399 84.1823L307.86 78.2206L285.975 75.8647L283.204 83.4906L275.35 86.4347C275.065 86.5397 274.795 86.6788 274.544 86.849C273.885 87.2938 273.379 87.9298 273.092 88.6713C272.806 89.4128 272.754 90.2241 272.943 90.9961L276.289 104.597L327.55 104.597Z" fill="#4D3595"/>
<path d="M282.182 104.597H265.199C265.808 100.808 266.352 97.4557 266.707 95.3237C268.003 87.5642 273.659 86.9025 274.544 86.8491C274.615 86.8424 274.658 86.8424 274.661 86.8424H278.234L282.182 104.597Z" fill="#4D3595"/>
<path d="M327.551 104.597H331.668C331.304 101.252 330.148 98.9997 328.978 97.5326C328.197 96.5013 327.189 95.6632 326.033 95.0831L325.722 94.9495L322.103 104.597H327.551Z" fill="#4D3595"/>
<path d="M296.063 72.0913C304.766 72.0913 311.821 65.0374 311.821 56.336C311.821 47.6346 304.766 40.5808 296.063 40.5808C287.36 40.5808 280.305 47.6346 280.305 56.336C280.305 65.0374 287.36 72.0913 296.063 72.0913Z" fill="#A0616A"/>
<path d="M285.486 48.6602C287.117 50.5904 289.878 51.1348 292.424 51.3561C297.596 51.8098 305.116 51.0741 310.17 49.9076C310.533 53.403 309.548 57.1721 311.607 60.048C312.572 56.5667 313.133 52.9858 313.279 49.3762C313.342 47.8281 313.317 46.2266 312.688 44.8055C312.059 43.3844 310.687 42.178 309.107 42.1655C310.281 41.2753 311.656 40.6877 313.111 40.4547L308.108 37.9407L309.392 36.6217L300.334 36.0675L302.958 34.4012C299.008 33.8589 295.011 33.7332 291.034 34.0264C289.188 34.1622 287.259 34.422 285.763 35.4915C284.268 36.5611 283.403 38.6862 284.332 40.2561C283.169 40.447 282.075 40.9314 281.152 41.6635C280.229 42.3956 279.509 43.3511 279.059 44.4395C278.392 46.1297 278.453 48.007 278.658 49.8081C279 52.6885 279.669 55.5206 280.654 58.249" fill="#2F2E41"/>
<path d="M262.783 235H116.723C116.325 235 115.942 234.841 115.66 234.559C115.378 234.277 115.22 233.895 115.219 233.496V91.1376C115.22 90.7389 115.378 90.3567 115.66 90.0748C115.942 89.7929 116.325 89.6343 116.723 89.6339H262.783C263.182 89.6343 263.564 89.7929 263.846 90.0748C264.128 90.3567 264.287 90.7389 264.287 91.1376V233.496C264.287 233.895 264.128 234.277 263.846 234.559C263.564 234.841 263.182 235 262.783 235Z" fill="#E4E4E4"/>
<path d="M246.907 102.667H132.599C132.201 102.668 131.818 102.826 131.536 103.108C131.254 103.39 131.096 103.772 131.095 104.171V192.727C131.096 193.126 131.254 193.508 131.536 193.79C131.818 194.072 132.201 194.23 132.599 194.231H246.907C247.306 194.23 247.688 194.072 247.97 193.79C248.252 193.508 248.41 193.126 248.411 192.727V104.171C248.41 103.772 248.252 103.39 247.97 103.108C247.688 102.826 247.306 102.668 246.907 102.667Z" fill="white"/>
<path d="M240.389 211.608H139.117C138.895 211.607 138.683 211.519 138.526 211.363C138.37 211.206 138.282 210.994 138.281 210.772V206.094C138.282 205.872 138.37 205.66 138.526 205.503C138.683 205.347 138.895 205.259 139.117 205.258H240.389C240.611 205.259 240.823 205.347 240.98 205.503C241.137 205.66 241.225 205.872 241.225 206.094V210.772C241.225 210.994 241.137 211.206 240.98 211.363C240.823 211.519 240.611 211.607 240.389 211.608Z" fill="white"/>
<path d="M205.295 222.97H139.117C138.895 222.969 138.683 222.881 138.526 222.725C138.37 222.568 138.282 222.356 138.281 222.134V217.456C138.282 217.234 138.37 217.022 138.526 216.865C138.683 216.709 138.895 216.621 139.117 216.62H205.295C205.517 216.621 205.729 216.709 205.886 216.865C206.042 217.022 206.13 217.234 206.131 217.456V222.134C206.13 222.356 206.042 222.568 205.886 222.725C205.729 222.881 205.517 222.969 205.295 222.97Z" fill="white"/>
<path d="M201 194.231H177.995L179.429 172.717L187.728 174.632L195.8 171.527L196.014 171.447L196.027 171.44C196.03 171.447 196.032 171.453 196.034 171.46C196.161 171.972 198.694 182.114 201 194.231Z" fill="#4D3595"/>
<path d="M214.865 176.229L212.715 194.231H193.327L195.8 171.527L195.823 171.307L196.014 171.447L196.034 171.46L200.817 174.949L214.865 176.229Z" fill="#2F2E41"/>
<path d="M181.397 194.231H164.034L163.783 180.059L176.561 175.821L179.429 172.717C179.429 172.717 180.334 182.057 181.397 194.231Z" fill="#2F2E41"/>
<path d="M223.223 194.231H208.834L209.757 181.335L214.864 176.229C214.864 176.229 218.905 184.704 223.223 194.231Z" fill="#2F2E41"/>
<path d="M168.129 194.231H160.538C160.572 190.101 160.592 187.247 160.592 186.441C160.554 185.196 160.825 183.961 161.382 182.847C161.939 181.733 162.765 180.775 163.784 180.059L167.617 181.335L168.129 194.231Z" fill="#2F2E41"/>
<path d="M166.944 150.571C166.956 147.071 167.876 143.635 169.614 140.597C171.353 137.56 173.85 135.026 176.862 133.243C183.26 129.466 190.98 129.535 198.041 133.43C203.072 136.205 207.165 143.189 207.165 148.998V165.947H166.944V150.571Z" fill="#2F2E41"/>
<path d="M193.227 163.749C200.267 159.901 202.854 151.076 199.006 144.037C195.157 136.998 186.33 134.411 179.29 138.259C172.25 142.107 169.663 150.932 173.511 157.971C177.36 165.01 186.187 167.597 193.227 163.749Z" fill="#FFB8B8"/>
<path d="M171.109 151.141C170.999 151.014 170.741 150.717 172.533 136.931L172.59 136.705H172.752C181.835 132.238 191.05 132.125 200.144 136.37C200.424 136.503 200.665 136.706 200.843 136.96C201.02 137.213 201.129 137.509 201.158 137.817C202.22 150.77 201.963 151.052 201.854 151.173C201.687 151.356 201.484 151.502 201.258 151.602C201.032 151.702 200.788 151.753 200.54 151.754H196.511L196.427 151.601C195.735 150.316 194.976 149.068 194.153 147.863C193.774 149.063 193.464 150.283 193.225 151.518L193.175 151.754H172.45C172.196 151.754 171.944 151.699 171.713 151.593C171.481 151.488 171.275 151.334 171.109 151.141Z" fill="#2F2E41"/>
</g>
<defs>
<clipPath id="clip0_179_5488">
<rect width="373.948" height="235" fill="white"/>
</clipPath>
</defs>
</svg>
