<svg width="363" height="233" viewBox="0 0 363 233" fill="none" xmlns="http://www.w3.org/2000/svg">
<path d="M67.5686 8.05244L361.709 50.5776L341.547 190.265L47.406 147.74L67.5686 8.05244Z" fill="#F1F1F1"/>
<path d="M74.2504 21.2468L351.57 61.34L334.747 177.886L57.4281 137.793L74.2504 21.2468Z" fill="white"/>
<path d="M68.8592 1.35687e-05L363 42.5252L361.195 55.0312L67.054 12.5061L68.8592 1.35687e-05Z" fill="#E5E5E5"/>
<path d="M352.653 50.8785C351.36 50.8785 350.312 49.8299 350.312 48.5365C350.312 47.243 351.36 46.1945 352.653 46.1945C353.945 46.1945 354.993 47.243 354.993 48.5365C354.993 49.8299 353.945 50.8785 352.653 50.8785Z" fill="white"/>
<path d="M343.861 49.6075C342.569 49.6075 341.521 48.559 341.521 47.2655C341.521 45.972 342.569 44.9235 343.861 44.9235C345.154 44.9235 346.201 45.972 346.201 47.2655C346.201 48.559 345.154 49.6075 343.861 49.6075Z" fill="white"/>
<path d="M335.07 48.3365C333.777 48.3365 332.73 47.288 332.73 45.9945C332.73 44.701 333.777 43.6525 335.07 43.6525C336.362 43.6525 337.41 44.701 337.41 45.9945C337.41 47.288 336.362 48.3365 335.07 48.3365Z" fill="white"/>
<path d="M0 68.1569H297.194V209.294H0V68.1569Z" fill="#E6E6E6"/>
<path d="M8.49802 80.2597H288.696V198.015H8.49802V80.2597Z" fill="white"/>
<path d="M0.126709 60.0026H297.321V72.6384H0.126709V60.0026Z" fill="#CBCBCB"/>
<path d="M287.938 69.7748C286.646 69.7748 285.598 68.7262 285.598 67.4327C285.598 66.1393 286.646 65.0907 287.938 65.0907C289.231 65.0907 290.279 66.1393 290.279 67.4327C290.279 68.7262 289.231 69.7748 287.938 69.7748Z" fill="white"/>
<path d="M279.056 69.7748C277.764 69.7748 276.716 68.7262 276.716 67.4327C276.716 66.1393 277.764 65.0907 279.056 65.0907C280.349 65.0907 281.396 66.1393 281.396 67.4327C281.396 68.7262 280.349 69.7748 279.056 69.7748Z" fill="white"/>
<path d="M270.173 69.7748C268.881 69.7748 267.833 68.7262 267.833 67.4327C267.833 66.1393 268.881 65.0907 270.173 65.0907C271.466 65.0907 272.513 66.1393 272.513 67.4327C272.513 68.7262 271.466 69.7748 270.173 69.7748Z" fill="white"/>
<path d="M87.7752 98.1628H127.238V101.131H87.7752V98.1628Z" fill="#E6E6E6"/>
<path d="M66.299 106.877H127.238V109.846H66.299V106.877Z" fill="#E6E6E6"/>
<path d="M76.9404 115.177H126.604V118.145H76.9404V115.177Z" fill="#E6E6E6"/>
<path d="M98.2448 124.283H127.238V127.251H98.2448V124.283Z" fill="#E6E6E6"/>
<path d="M83.4799 133.178H127.238V136.146H83.4799V133.178Z" fill="#E6E6E6"/>
<path d="M140.391 97.2291H145.224V102.065H140.391V97.2291Z" fill="#E6E6E6"/>
<path d="M140.391 105.944H145.224V110.78H140.391V105.944Z" fill="#E6E6E6"/>
<path d="M140.391 114.243H145.224V119.079H140.391V114.243Z" fill="#E6E6E6"/>
<path d="M140.391 123.349H145.224V128.185H140.391V123.349Z" fill="#E6E6E6"/>
<path d="M140.391 132.244H145.224V137.08H140.391V132.244Z" fill="#E6E6E6"/>
<path d="M87.7752 142.128H127.238V145.097H87.7752V142.128Z" fill="#E6E6E6"/>
<path d="M66.299 150.843H127.238V153.811H66.299V150.843Z" fill="#E6E6E6"/>
<path d="M76.9404 159.142H126.604V162.111H76.9404V159.142Z" fill="#E6E6E6"/>
<path d="M98.2448 168.249H127.238V171.217H98.2448V168.249Z" fill="#E6E6E6"/>
<path d="M83.4799 177.143H127.238V180.112H83.4799V177.143Z" fill="#E6E6E6"/>
<path d="M140.391 141.195H145.224V146.031H140.391V141.195Z" fill="#E6E6E6"/>
<path d="M140.391 149.909H145.224V154.745H140.391V149.909Z" fill="#E6E6E6"/>
<path d="M140.391 158.208H145.224V163.044H140.391V158.208Z" fill="#E6E6E6"/>
<path d="M140.391 167.315H145.224V172.151H140.391V167.315Z" fill="#E6E6E6"/>
<path d="M140.391 176.21H145.224V181.046H140.391V176.21Z" fill="#E6E6E6"/>
<path d="M212.614 165.413H252.076V168.382H212.614V165.413Z" fill="#E6E6E6"/>
<path d="M207.692 173.127H257.356V176.095H207.692V173.127Z" fill="#E6E6E6"/>
<path d="M206.696 127.967C206.698 132.429 207.856 136.814 210.056 140.693C212.257 144.573 215.426 147.816 219.253 150.104C223.08 152.392 227.434 153.648 231.891 153.748C236.348 153.849 240.755 152.791 244.681 150.678L244.686 150.673C248.696 148.511 252.062 145.323 254.441 141.435C256.82 137.547 258.126 133.097 258.226 128.539C258.327 123.981 257.219 119.478 255.014 115.488C252.809 111.499 249.587 108.165 245.676 105.828C241.765 103.49 237.305 102.232 232.75 102.181C228.195 102.131 223.708 103.29 219.746 105.54C215.784 107.79 212.489 111.051 210.197 114.991C207.904 118.931 206.696 123.408 206.696 127.967Z" fill="#E6E6E6"/>
<path d="M232.332 126.715C228.463 126.715 225.327 123.577 225.327 119.705C225.327 115.834 228.463 112.695 232.332 112.695C236.2 112.695 239.336 115.834 239.336 119.705C239.336 123.577 236.2 126.715 232.332 126.715Z" fill="white"/>
<path d="M220.371 141.2C228.202 143.951 236.74 143.918 244.549 141.107L244.554 141.103L239.336 130.794H225.327L220.371 141.2Z" fill="white"/>
<path d="M309.884 191.977C322.093 191.977 332.026 181.417 332.026 168.437C332.026 155.458 322.093 144.898 309.884 144.898C297.675 144.898 287.743 155.458 287.743 168.437C287.743 181.417 297.675 191.977 309.884 191.977ZM309.884 150.846C318.816 150.846 326.083 158.737 326.083 168.437C326.083 178.137 318.816 186.029 309.884 186.029C300.952 186.029 293.686 178.137 293.686 168.437C293.686 158.737 300.952 150.846 309.884 150.846Z" fill="#4D3595"/>
<path d="M288.917 233H330.851C334.549 232.996 338.095 231.524 340.709 228.907C343.324 226.29 344.795 222.742 344.799 219.041V177.875C344.796 175.341 343.789 172.912 341.999 171.12C340.209 169.328 337.782 168.321 335.25 168.318H284.518C281.986 168.321 279.559 169.328 277.769 171.12C275.979 172.912 274.972 175.341 274.969 177.875V219.041C274.973 222.742 276.444 226.29 279.059 228.907C281.674 231.524 285.219 232.996 288.917 233Z" fill="#3F3D56"/>
<path d="M301.713 191.737C301.712 190.283 302.098 188.856 302.831 187.601C303.565 186.346 304.619 185.31 305.886 184.598C307.153 183.887 308.587 183.527 310.039 183.554C311.491 183.582 312.91 183.996 314.149 184.755C315.388 185.514 316.403 186.589 317.088 187.871C317.774 189.152 318.106 190.594 318.05 192.047C317.994 193.499 317.552 194.911 316.769 196.136C315.987 197.361 314.893 198.355 313.599 199.015V211.811H306.17V199.015C304.829 198.331 303.703 197.29 302.916 196.005C302.129 194.721 301.713 193.244 301.713 191.737Z" fill="white"/>
</svg>
